<svg viewBox="0 0 1920 188" xmlns="http://www.w3.org/2000/svg"><path d="m106.13 151.42a11.86 11.86 0 1 0 11.87 11.85 11.87 11.87 0 0 0 -11.87-11.85zm0 16.61a4.76 4.76 0 1 1 4.76-4.76 4.76 4.76 0 0 1 -4.76 4.73z"/><path d="m230.06 151.42a11.86 11.86 0 1 0 11.86 11.85 11.87 11.87 0 0 0 -11.86-11.85zm0 16.61a4.76 4.76 0 1 1 4.76-4.76 4.76 4.76 0 0 1 -4.76 4.73z"/><path d="m254.79 110.37-31.69-3.62-16.91-27.48a28.75 28.75 0 0 0 -24.34-13.61h-57.52a37 37 0 0 0 -35.54 27.08l-.45 1.63a23.75 23.75 0 0 1 -16.34 16.46 15.08 15.08 0 0 0 -11 14.45v39.31a3.55 3.55 0 0 0 3.55 3.55h18.29a23.79 23.79 0 0 0 46.58 0h77.35a23.8 23.8 0 0 0 46.59 0h19.16a3.56 3.56 0 0 0 3.53-3.15l2.78-24.38a27.36 27.36 0 0 0 -24.04-30.24zm-186.65 46.35h15.12a23.55 23.55 0 0 0 -.81 4.32h-14.31zm38 23.24a16.69 16.69 0 1 1 16.69-16.69 16.71 16.71 0 0 1 -16.7 16.73zm123.93 0a16.69 16.69 0 1 1 16.7-16.69 16.71 16.71 0 0 1 -16.71 16.73zm0-40.48a23.74 23.74 0 0 0 -19.46 10.14h-63.2a3.55 3.55 0 1 0 0 7.1h59.79a23.56 23.56 0 0 0 -.82 4.32h-76.56a23.78 23.78 0 0 0 -43.16-11.42h-18.52v-24.34a8 8 0 0 1 5.77-7.62 30.86 30.86 0 0 0 21.27-21.41l.45-1.63a29.85 29.85 0 0 1 28.7-21.86h57.52a21.63 21.63 0 0 1 18.3 10.24l17.85 29a3.53 3.53 0 0 0 2.62 1.66l33.4 3.82a20.23 20.23 0 0 1 16.41 12.44h-11.12a3.55 3.55 0 1 0 0 7.1h12.58a19.4 19.4 0 0 1 -.12 2.84l-1.12 9.81h-21.12a23.75 23.75 0 0 0 -19.47-10.19zm23.68 21.52a23.56 23.56 0 0 0 -.82-4.32h16.91l-.49 4.32z"/><path d="m182 119.28h-7.46a3.55 3.55 0 1 0 0 7.1h7.46a3.55 3.55 0 1 0 0-7.1z"/><path d="m134.35 122.83a3.55 3.55 0 0 0 -3.55-3.55h-7.46a3.55 3.55 0 1 0 0 7.1h7.46a3.55 3.55 0 0 0 3.55-3.55z"/><path d="m138.75 151.81a3.55 3.55 0 1 0 -1.28 4.29 3.6 3.6 0 0 0 1.28-4.29z"/><path d="m196.45 85.27a17.24 17.24 0 0 0 -14.6-8.17h-57.53a25.47 25.47 0 0 0 -24.5 18.68l-.45 1.62c-1.17 4.24-3 11.53-3 11.84a3.55 3.55 0 0 0 3.44 4.4h107.74a3.56 3.56 0 0 0 3-5.41zm-41-1.07v22.34h-32.72v-22.26c.52 0 1.06-.08 1.59-.08zm-49.2 15.09.45-1.63a18.37 18.37 0 0 1 9-11.25v20.13h-11.3c.52-2.37 1.25-5.21 1.82-7.25zm56.3 7.25v-22.34h19.33a10.08 10.08 0 0 1 8.52 4.8l10.8 17.55z"/><path d="m329.19 151.42a11.86 11.86 0 1 0 11.81 11.85 11.87 11.87 0 0 0 -11.81-11.85zm0 16.61a4.76 4.76 0 1 1 4.75-4.76 4.76 4.76 0 0 1 -4.75 4.73z"/><path d="m453.12 151.42a11.86 11.86 0 1 0 11.88 11.85 11.86 11.86 0 0 0 -11.88-11.85zm0 16.61a4.76 4.76 0 1 1 4.75-4.76 4.76 4.76 0 0 1 -4.75 4.73z"/><path d="m477.84 110.37-31.68-3.62-16.91-27.48a28.75 28.75 0 0 0 -24.35-13.61h-57.52a37 37 0 0 0 -35.54 27.08l-.45 1.63a23.73 23.73 0 0 1 -16.39 16.46 15.07 15.07 0 0 0 -11 14.45v39.31a3.55 3.55 0 0 0 3.55 3.55h18.35a23.79 23.79 0 0 0 46.58 0h77.35a23.79 23.79 0 0 0 46.58 0h19.17a3.57 3.57 0 0 0 3.53-3.15l2.78-24.38a27.37 27.37 0 0 0 -24.05-30.24zm-186.65 46.35h15.13a23.56 23.56 0 0 0 -.82 4.32h-14.31zm38 23.24a16.69 16.69 0 1 1 16.69-16.69 16.71 16.71 0 0 1 -16.69 16.73zm123.93 0a16.69 16.69 0 1 1 16.69-16.69 16.71 16.71 0 0 1 -16.69 16.73zm0-40.48a23.77 23.77 0 0 0 -19.47 10.14h-63.19a3.55 3.55 0 1 0 0 7.1h59.79a23.55 23.55 0 0 0 -.81 4.32h-76.56a23.78 23.78 0 0 0 -43.16-11.42h-18.53v-24.34a8 8 0 0 1 5.77-7.62 30.88 30.88 0 0 0 21.28-21.41l.45-1.63a29.83 29.83 0 0 1 28.69-21.86h57.52a21.62 21.62 0 0 1 18.3 10.24l17.8 29a3.51 3.51 0 0 0 2.62 1.66l33.4 3.82a20.24 20.24 0 0 1 16.41 12.44h-11.06a3.55 3.55 0 1 0 0 7.1h12.63a20.9 20.9 0 0 1 -.12 2.84l-1.12 9.81h-21.17a23.77 23.77 0 0 0 -19.47-10.19zm23.69 21.52a23.56 23.56 0 0 0 -.82-4.32h16.91l-.49 4.32z"/><path d="m405.09 119.28h-7.46a3.55 3.55 0 0 0 0 7.1h7.46a3.55 3.55 0 1 0 0-7.1z"/><path d="m357.4 122.83a3.55 3.55 0 0 0 -3.55-3.55h-7.46a3.55 3.55 0 0 0 0 7.1h7.46a3.55 3.55 0 0 0 3.55-3.55z"/><path d="m361.8 151.81a3.55 3.55 0 1 0 -1.27 4.29 3.58 3.58 0 0 0 1.27-4.29c-.09-.21.09.19 0 0z"/><path d="m419.51 85.27a17.25 17.25 0 0 0 -14.6-8.17h-57.53a25.49 25.49 0 0 0 -24.51 18.68l-.44 1.62c-1.17 4.24-3 11.53-3.05 11.84a3.55 3.55 0 0 0 3.45 4.4h107.78a3.57 3.57 0 0 0 3.1-1.82 3.53 3.53 0 0 0 -.08-3.59zm-41-1.07v22.34h-32.7v-22.26c.53 0 1.06-.08 1.6-.08zm-49.24 15.09.45-1.63a18.38 18.38 0 0 1 9-11.25v20.13h-11.3c.58-2.37 1.29-5.21 1.85-7.25zm56.31 7.25v-22.34h19.33a10.1 10.1 0 0 1 8.55 4.8l10.79 17.55z"/><path d="m597.19 151.42a11.86 11.86 0 1 0 11.81 11.85 11.87 11.87 0 0 0 -11.81-11.85zm0 16.61a4.76 4.76 0 1 1 4.75-4.76 4.76 4.76 0 0 1 -4.75 4.73z"/><path d="m721.12 151.42a11.86 11.86 0 1 0 11.88 11.85 11.86 11.86 0 0 0 -11.88-11.85zm0 16.61a4.76 4.76 0 1 1 4.75-4.76 4.76 4.76 0 0 1 -4.75 4.73z"/><path d="m745.84 110.37-31.68-3.62-16.91-27.48a28.75 28.75 0 0 0 -24.35-13.61h-57.52a37 37 0 0 0 -35.54 27.08l-.45 1.63a23.73 23.73 0 0 1 -16.39 16.46 15.07 15.07 0 0 0 -10.95 14.45v39.31a3.55 3.55 0 0 0 3.55 3.55h18.3a23.79 23.79 0 0 0 46.58 0h77.35a23.79 23.79 0 0 0 46.58 0h19.17a3.57 3.57 0 0 0 3.53-3.15l2.78-24.38a27.37 27.37 0 0 0 -24.05-30.24zm-186.65 46.35h15.13a23.56 23.56 0 0 0 -.82 4.32h-14.31zm38 23.24a16.69 16.69 0 1 1 16.69-16.69 16.71 16.71 0 0 1 -16.69 16.73zm123.93 0a16.69 16.69 0 1 1 16.69-16.69 16.71 16.71 0 0 1 -16.69 16.73zm0-40.48a23.77 23.77 0 0 0 -19.47 10.14h-63.19a3.55 3.55 0 0 0 0 7.1h59.79a23.55 23.55 0 0 0 -.81 4.32h-76.56a23.78 23.78 0 0 0 -43.16-11.42h-18.53v-24.34a8 8 0 0 1 5.77-7.62 30.88 30.88 0 0 0 21.28-21.41l.45-1.63a29.83 29.83 0 0 1 28.69-21.86h57.52a21.62 21.62 0 0 1 18.3 10.24l17.8 29a3.51 3.51 0 0 0 2.62 1.66l33.4 3.82a20.24 20.24 0 0 1 16.41 12.44h-11.06a3.55 3.55 0 1 0 0 7.1h12.63a20.9 20.9 0 0 1 -.12 2.84l-1.12 9.81h-21.17a23.77 23.77 0 0 0 -19.47-10.19zm23.69 21.52a23.56 23.56 0 0 0 -.82-4.32h16.91l-.49 4.32z"/><path d="m673.09 119.28h-7.46a3.55 3.55 0 1 0 0 7.1h7.46a3.55 3.55 0 0 0 0-7.1z"/><path d="m625.4 122.83a3.55 3.55 0 0 0 -3.55-3.55h-7.46a3.55 3.55 0 1 0 0 7.1h7.46a3.55 3.55 0 0 0 3.55-3.55z"/><path d="m629.8 151.81a3.55 3.55 0 1 0 -1.27 4.29 3.58 3.58 0 0 0 1.27-4.29z"/><path d="m687.51 85.27a17.25 17.25 0 0 0 -14.6-8.17h-57.53a25.49 25.49 0 0 0 -24.51 18.68l-.44 1.62c-1.17 4.24-3 11.53-3 11.84a3.55 3.55 0 0 0 3.45 4.4h107.73a3.57 3.57 0 0 0 3.1-1.82 3.53 3.53 0 0 0 -.08-3.59zm-41-1.07v22.34h-32.7v-22.26c.53 0 1.06-.08 1.6-.08zm-49.24 15.09.45-1.63a18.38 18.38 0 0 1 9-11.25v20.13h-11.3c.58-2.37 1.29-5.21 1.85-7.25zm56.31 7.25v-22.34h19.33a10.1 10.1 0 0 1 8.55 4.8l10.79 17.55z"/><path d="m253.72 96.55a43 43 0 0 1 -6.15-10.76 1.53 1.53 0 0 0 -1.84-1.05 1.51 1.51 0 0 0 -1 1.84 47.75 47.75 0 0 0 6.92 12.09 1.5 1.5 0 0 0 2.12-2.12z"/><path d="m262.45 93.45.48-8.42a1.5 1.5 0 0 0 -3 0l-.48 8.42a1.5 1.5 0 0 0 1.55 1.55 1.54 1.54 0 0 0 1.5-1.5z"/><path d="m268.34 102.87 9.34-11.6a1.54 1.54 0 0 0 0-2.12 1.5 1.5 0 0 0 -2.12 0l-9.35 11.6a1.56 1.56 0 0 0 0 2.12 1.51 1.51 0 0 0 2.13 0z"/><path d="m1047.85 150.89a11.86 11.86 0 1 0 11.86 11.85 11.86 11.86 0 0 0 -11.86-11.85zm0 16.61a4.76 4.76 0 1 1 4.75-4.76 4.76 4.76 0 0 1 -4.75 4.76z"/><path d="m1171.78 150.89a11.86 11.86 0 1 0 11.86 11.85 11.86 11.86 0 0 0 -11.86-11.85zm0 16.61a4.76 4.76 0 1 1 4.75-4.76 4.76 4.76 0 0 1 -4.75 4.76z"/><path d="m1196.5 109.85-31.68-3.62-16.91-27.49a28.77 28.77 0 0 0 -24.34-13.61h-57.57a37 37 0 0 0 -35.54 27.08l-.45 1.63a23.73 23.73 0 0 1 -16.35 16.46 15.08 15.08 0 0 0 -11 14.46v39.3a3.55 3.55 0 0 0 3.55 3.55h18.26a23.79 23.79 0 0 0 46.58 0h77.35a23.79 23.79 0 0 0 46.58 0h19.17a3.57 3.57 0 0 0 3.53-3.15l2.78-24.37a27.36 27.36 0 0 0 -23.96-30.24zm-186.65 46.34h15.15a23.73 23.73 0 0 0 -.82 4.32h-14.31zm38 23.25a16.7 16.7 0 1 1 16.69-16.7 16.71 16.71 0 0 1 -16.69 16.7zm123.93 0a16.7 16.7 0 1 1 16.69-16.7 16.71 16.71 0 0 1 -16.69 16.7zm0-40.49a23.77 23.77 0 0 0 -19.47 10.14h-63.19a3.55 3.55 0 1 0 0 7.1h59.79a23.71 23.71 0 0 0 -.81 4.32h-76.56a23.78 23.78 0 0 0 -43.16-11.42h-18.53v-24.33a8 8 0 0 1 5.77-7.63 30.88 30.88 0 0 0 21.28-21.4l.45-1.64a29.83 29.83 0 0 1 28.65-21.86h57.53a21.62 21.62 0 0 1 18.29 10.23l17.82 29a3.57 3.57 0 0 0 2.62 1.67l33.4 3.81a20.24 20.24 0 0 1 16.41 12.44h-11.07a3.55 3.55 0 1 0 0 7.1h12.58a20.83 20.83 0 0 1 -.12 2.84l-1.12 9.81h-21.12a23.77 23.77 0 0 0 -19.44-10.13zm23.69 21.56a23.73 23.73 0 0 0 -.82-4.32h16.91l-.49 4.32z"/><path d="m1123.75 118.75h-7.46a3.55 3.55 0 1 0 0 7.1h7.46a3.55 3.55 0 0 0 0-7.1z"/><path d="m1076.07 122.3a3.55 3.55 0 0 0 -3.56-3.55h-7.46a3.55 3.55 0 1 0 0 7.1h7.46a3.55 3.55 0 0 0 3.56-3.55z"/><path d="m1080.46 151.28a3.55 3.55 0 1 0 -1.27 4.29 3.58 3.58 0 0 0 1.27-4.29c-.09-.21.09.22 0 0z"/><path d="m1138.17 84.74a17.24 17.24 0 0 0 -14.6-8.17h-57.57a25.49 25.49 0 0 0 -24.51 18.68l-.44 1.63c-1.17 4.24-3 11.52-3 11.83a3.56 3.56 0 0 0 3.45 4.4h107.78a3.55 3.55 0 0 0 3-5.41zm-41-1.07v22.33h-32.7v-22.25c.53 0 1.06-.08 1.6-.08zm-49.2 15.09.44-1.63a18.34 18.34 0 0 1 9-11.24v20.11h-11.41c.64-2.36 1.37-5.2 1.94-7.24zm56.3 7.25v-22.34h19.33a10.11 10.11 0 0 1 8.55 4.79l10.8 17.55z"/><path d="m997.46 125a268.26 268.26 0 0 1 -53.5 2.85c-1.93-.09-1.92 2.91 0 3a271.87 271.87 0 0 0 54.3-3c1.9-.3 1.09-3.19-.8-2.89z"/><path d="m986.58 139.65-55.18 5.27c-1.91.18-1.93 3.18 0 3l55.18-5.27c1.91-.18 1.93-3.18 0-3z"/><path d="m967 158-45.43 2.9c-1.92.12-1.94 3.12 0 3l45.43-2.9c1.91-.12 1.93-3.12 0-3z"/><path d="m252 60.25a60 60 0 0 0 1.33 13.81 1.5 1.5 0 1 0 2.89-.8 56.88 56.88 0 0 1 -1.22-13c0-1.93-3-1.93-3 0z"/><path d="m275 62.65-2.38 11.83a1.54 1.54 0 0 0 1.05 1.85 1.51 1.51 0 0 0 1.84-1l2.38-11.83a1.53 1.53 0 0 0 -1.05-1.84 1.5 1.5 0 0 0 -1.84 1z"/><path d="m289.77 81.17a60.07 60.07 0 0 0 11.67-11.79 1.5 1.5 0 0 0 -.54-2 1.54 1.54 0 0 0 -2 .54 54.54 54.54 0 0 1 -10.6 10.7 1.56 1.56 0 0 0 -.53 2.06 1.51 1.51 0 0 0 2 .54z"/><path d="m238.51 72.78a45.1 45.1 0 0 0 -6.42-10.17 1.51 1.51 0 0 0 -2.12 0 1.53 1.53 0 0 0 0 2.12 43 43 0 0 1 5.95 9.56 1.5 1.5 0 1 0 2.59-1.51z"/><path d="m1576 151.38a11.86 11.86 0 1 0 11.85 11.86 11.87 11.87 0 0 0 -11.85-11.86zm0 16.61a4.75 4.75 0 1 1 4.75-4.75 4.76 4.76 0 0 1 -4.75 4.76z"/><path d="m1699.9 151.38a11.86 11.86 0 1 0 11.85 11.86 11.87 11.87 0 0 0 -11.85-11.86zm0 16.61a4.75 4.75 0 1 1 4.75-4.75 4.76 4.76 0 0 1 -4.75 4.76z"/><path d="m1724.62 110.34-31.68-3.62-16.94-27.49a28.78 28.78 0 0 0 -24.35-13.6h-57.52a37 37 0 0 0 -35.54 27.07l-.45 1.64a23.73 23.73 0 0 1 -16.36 16.45 15.09 15.09 0 0 0 -10.94 14.46v39.3a3.55 3.55 0 0 0 3.55 3.55h18.25a23.8 23.8 0 0 0 46.59 0h77.35a23.79 23.79 0 0 0 46.58 0h19.16a3.54 3.54 0 0 0 3.53-3.14l2.78-24.38a27.35 27.35 0 0 0 -24.01-30.24zm-186.62 46.35h15.13a23.62 23.62 0 0 0 -.82 4.31h-14.31zm38 23.24a16.69 16.69 0 1 1 16.69-16.69 16.71 16.71 0 0 1 -16.69 16.69zm123.93 0a16.69 16.69 0 1 1 16.69-16.69 16.71 16.71 0 0 1 -16.72 16.69zm0-40.49a23.78 23.78 0 0 0 -19.47 10.15h-63.19a3.55 3.55 0 1 0 0 7.1h59.73a23.62 23.62 0 0 0 -.82 4.31h-76.56a23.78 23.78 0 0 0 -43.15-11.41h-18.47v-24.34a7.94 7.94 0 0 1 5.77-7.62 30.88 30.88 0 0 0 21.23-21.41l.45-1.63a29.83 29.83 0 0 1 28.69-21.86h57.52a21.62 21.62 0 0 1 18.34 10.27l17.81 29a3.54 3.54 0 0 0 2.62 1.67l33.4 3.82a20.23 20.23 0 0 1 16.42 12.44h-11.09a3.55 3.55 0 0 0 0 7.1h12.59a22.72 22.72 0 0 1 -.12 2.84l-1.12 9.81h-21.12a23.78 23.78 0 0 0 -19.49-10.24zm23.65 21.56a23.61 23.61 0 0 0 -.81-4.31h16.91l-.5 4.31z"/><path d="m1651.87 119.24h-7.46a3.55 3.55 0 1 0 0 7.1h7.46a3.55 3.55 0 1 0 0-7.1z"/><path d="m1604.18 122.79a3.55 3.55 0 0 0 -3.55-3.55h-7.46a3.55 3.55 0 0 0 0 7.1h7.46a3.55 3.55 0 0 0 3.55-3.55z"/><path d="m1608.58 151.78a3.55 3.55 0 1 0 -1.28 4.29 3.58 3.58 0 0 0 1.28-4.29z"/><path d="m1666.28 85.23a17.24 17.24 0 0 0 -14.6-8.16h-57.52a25.49 25.49 0 0 0 -24.51 18.67l-.45 1.63c-1.16 4.24-3 11.52-3 11.83a3.56 3.56 0 0 0 3.45 4.41h107.77a3.56 3.56 0 0 0 3-5.42zm-41-1.06v22.33h-32.69v-22.26c.53 0 1.06-.07 1.6-.07zm-49.2 15.08.45-1.63a18.3 18.3 0 0 1 9-11.24v20.12h-11.3c.53-2.36 1.26-5.2 1.82-7.25zm56.3 7.25v-22.33h19.33a10.08 10.08 0 0 1 8.55 4.78l10.74 17.55z"/><path d="m183.43 44.65c10.56-.16 19.78-8.73 20.95-19.17a1.51 1.51 0 0 0 -1.5-1.5 12.18 12.18 0 0 0 -10 6.57 11.53 11.53 0 0 0 -1.36 6c.15 2 1 4.07.87 6.12-.22 2.55-3.2 1.94-5 1.69a82.25 82.25 0 0 1 -8.11-1.55 67.53 67.53 0 0 1 -15.28-5.47c-2.74-1.44-8.85-6.32-5.54-9.79h-2.16a161.8 161.8 0 0 1 27.49 29.54 1.53 1.53 0 0 0 2.36.3 46.7 46.7 0 0 0 13.25-38.8 1.51 1.51 0 0 0 -1.89-1.44 65.82 65.82 0 0 0 -33.94 24.3l2.8.76-.15-21.21-2.22 1.25a60.41 60.41 0 0 1 20.18 16.75c1 1.33 2.69-.19 2.5-1.46a121.06 121.06 0 0 0 -3.36-15.54 1.5 1.5 0 0 0 -2.2-.89 111.62 111.62 0 0 0 -25.52 24.64c-.72 1 .27 2.23 1.3 2.26 10.84.33 18.79-13.15 13.39-22.5a1.51 1.51 0 0 0 -2.74.36 32.34 32.34 0 0 0 11 31.47 1.52 1.52 0 0 0 2.56-1.06 26.46 26.46 0 0 1 7.16-17.39c1.32-1.41-.79-3.53-2.12-2.12a29.61 29.61 0 0 0 -8 19.51l2.56-1.06a29.4 29.4 0 0 1 -10.28-28.56l-2.73.34c4.3 7.44-2.26 18.25-10.8 18l1.29 2.25a107 107 0 0 1 24.44-23.57l-2.2-.9a124.17 124.17 0 0 1 3.36 15.51l2.51-1.46a62.56 62.56 0 0 0 -20.82-17.18 1.52 1.52 0 0 0 -2.26 1.3l.15 21.25a1.51 1.51 0 0 0 2.79.76 62.49 62.49 0 0 1 32.14-22.96l-1.9-1.45a43.91 43.91 0 0 1 -12.4 36.72l2.36.31a164.53 164.53 0 0 0 -28-30.15 1.53 1.53 0 0 0 -2.12 0c-3.42 3.59-1.2 8.33 1.85 11.33 3.78 3.74 9.26 5.55 14.21 7.18a81.47 81.47 0 0 0 8.86 2.38 44.82 44.82 0 0 0 8.68 1.29c2.36 0 4.62-1.08 5.3-3.47.62-2.18-.11-4.48-.5-6.63a9.18 9.18 0 0 1 8.24-10.51l-1.5-1.5c-1 8.8-9.16 16-17.95 16.17-1.93 0-1.94 3 0 3z"/></svg>