<svg xmlns="http://www.w3.org/2000/svg" viewBox="0 0 176.95 253.77"><defs><style>.cls-1{fill:#fff;}</style></defs><g id="Layer_2" data-name="Layer 2"><g id="Layer_1-2" data-name="Layer 1"><path class="cls-1" d="M87.73,158.59l2,2.34c.67-4.16,2.58-7,6.54-8.25.25-.07.49-.56.53-.88a6.43,6.43,0,0,1,1.22-3.67c.57-.66,1.19-1.28,1.84-2-.46-.05-.86-.14-1.26-.15A5.94,5.94,0,0,1,93,141.77a10.5,10.5,0,0,1,.1-5.88c.55-2.44,1.17-4.87,1.74-7.31a2.34,2.34,0,0,0,0-.69c-.18.19-.45.36-.52.58-.2.61-.32,1.24-.46,1.86L92,138c-2.4.1-2.42,0-2.5-2.42a50.39,50.39,0,0,1,1.07-10,5.46,5.46,0,0,1,.28-.92l.84-.14c.12-1.7,1-3.29.1-5a1.83,1.83,0,0,1,.13-1.28c.34-.94.76-1.85,1.15-2.78.1-.24.33-.51.29-.73a5.29,5.29,0,0,1,1.1-4,10.07,10.07,0,0,0,1.6-3.25c.35-1.75,1.71-2.94,3-4.12a8.9,8.9,0,0,0,.88-1.05c.81-1.06,1.56-2.17,2.43-3.18.56-.66,1.48-1,1.91-1.77a12.55,12.55,0,0,1,4.34-4.14,2.41,2.41,0,0,0,.74-.64,10.65,10.65,0,0,1,5.27-4,2.57,2.57,0,0,0,1-.61,9.38,9.38,0,0,1,4.87-2.66,12.91,12.91,0,0,0,1.73-.72,34.67,34.67,0,0,1,3.24-1.29c1.18-.34,2.48-.18,3.54-1a3,3,0,0,1,1.13-.38c2.12-.53,3.51.24,3.87,1.8-.91,1.23-1.62,2.3-2.46,3.27-.34.39-1,.85-1.41.75-.73-.17-.42-.89-.18-1.35.45-.84,1-1.63,1.49-2.45a3.42,3.42,0,0,0-3.47.92,10.46,10.46,0,0,0-1.49,2.68c-.26.61-1,1.38-1.43,1.21-.74-.27-.62-.87-.42-1.44s.55-1.42.84-2.16a1.61,1.61,0,0,0-.49,0c-2,.44-4,1.9-3.83,4.58,0,.73-.67,1.54-1.24,1.44-.78-.15-.86-.81-.78-1.43s.34-1.53.54-2.4a9.69,9.69,0,0,0-1,.28A4,4,0,0,0,116,92.24a1.27,1.27,0,0,1-1.14,1.45c-.77.17-1-.51-1-1.06a11.47,11.47,0,0,1,.1-2c-.72.45-1.34.78-1.91,1.19a3.14,3.14,0,0,0-1,4.06,1.68,1.68,0,0,1-.39,1.38.81.81,0,0,1-1.39,0,18.36,18.36,0,0,1-1.06-2,14.92,14.92,0,0,0-1.91,2.19c-.61,1-.79,2.26.72,3,.65.33.42.84.11,1.28a1.4,1.4,0,0,1-2.14.2,12,12,0,0,1-1.36-1.77,3.53,3.53,0,0,0-1.68,2.18,1.84,1.84,0,0,0,.9,2.38c.74.41.66.81.18,1.36a1.42,1.42,0,0,1-2,.27c-.53-.32-1-.72-1.6-1.14a12.92,12.92,0,0,0-1.3,2.12,1.85,1.85,0,0,0,1.58,2.57c.29,0,.74.25.77.45a1.1,1.1,0,0,1-.31,1,2.92,2.92,0,0,1-1.65.48,8.75,8.75,0,0,1-2.08-.86,14.15,14.15,0,0,0-.72,1.4,1.94,1.94,0,0,0,2,2.85c.37,0,.75,0,1.12,0,.72,0,1,.56.52,1.07a3.15,3.15,0,0,1-1.79.91,16.28,16.28,0,0,1-3-.35c-.1.26-.25.64-.36,1a1.9,1.9,0,0,0,1.78,2.63c.52,0,1.06-.17,1.59-.15.37,0,.9.12,1,.37a1.09,1.09,0,0,1-.24,1,4.27,4.27,0,0,1-1.7.76,14,14,0,0,1-2.34,0,2.71,2.71,0,0,0,.22,2.63,2.86,2.86,0,0,0,3.47.58,30,30,0,0,0,2.67-2c.06.19.14.46.24.8,1.78,0,3.55,0,5.31,0,.25,0,.58-.36.71-.63.9-1.87,1.66-3.82,2.64-5.65a27.42,27.42,0,0,1,7.67-9.34,24.91,24.91,0,0,1,15.58-4.7q11.67.11,23.34.16c.84,0,1.69-.11,2.53-.19a8,8,0,0,0,7-9.55,8.23,8.23,0,0,0-7.53-6.36q-10.29-.12-20.59-.19c-.67,0-1-.06-1.1-.9a12.94,12.94,0,0,0-3-7.77,2.62,2.62,0,0,0-1.6-.88,16.17,16.17,0,0,0-3,.14c-.63,0-1,0-1.2-.79-.63-3-1.64-6-3.94-7.84A22.06,22.06,0,0,0,123.2,66c-.72-2.26-1.64-4.45-2.58-6.63a11.86,11.86,0,0,1-1.08-6.07,7.62,7.62,0,0,0-.19-1.69l-1.3,1a1.28,1.28,0,0,0-.16.26l-3,4.44c-.11,0-.16,0-.16,0-.79-1.71-1.56-3.41-2.35-5.12A100.51,100.51,0,0,0,93.78,24.8,152,152,0,0,0,72.65,6.1c-2.76-2-5.56-3.93-8.36-5.86a1.47,1.47,0,0,0-1-.23c-.13,0-.31.52-.27.76.51,3.32,1,6.65,1.62,9.94a39.32,39.32,0,0,0,6.67,15.7c1,1.37,2,2.72,3,4.09-.09,0-.13.07-.15.06-.56-.37-1.12-.73-1.67-1.12A163.1,163.1,0,0,0,45.8,14.56a3,3,0,0,0-1-.1,3.68,3.68,0,0,0,0,1c.89,2.81,1.71,5.65,2.73,8.41a40.61,40.61,0,0,0,9.17,15c.86.86,1.75,1.69,2.65,2.57-4.65-1.54-9.2-3.14-13.81-4.53a87.45,87.45,0,0,0-14.17-3.22c3.5,7.08,7.34,13.82,13.41,19-2.07-.4-4.05-.93-6.05-1.32q-5.59-1.08-11.21-2c-1.69-.29-3.41-.44-5.12-.62-.23,0-.65.1-.69.24a1.1,1.1,0,0,0,.2.78c.72,1.1,1.43,2.21,2.24,3.25,2.21,2.87,4.35,5.8,6.74,8.5a68.68,68.68,0,0,0,5.61,5.13,5.76,5.76,0,0,1-.72,0c-3.08-.33-6.16-.68-9.24-1-1.45-.14-2.91-.21-4.36-.27-3.26-.13-6.52-.22-9.77-.33a1.62,1.62,0,0,0-.31,0c-.79.17-.95.58-.42,1.18,2.1,2.31,4.14,4.67,6.32,6.9A40,40,0,0,0,33.69,83.42L38,84.91a2.27,2.27,0,0,1-.46.09,131.65,131.65,0,0,0-20.92.68c-3.92.36-7.81,1-11.71,1.62-.29,0-.79.28-.79.43a1.29,1.29,0,0,0,.43.91c1.6,1.32,3.24,2.57,4.84,3.87a42.91,42.91,0,0,0,21.8,9.73,6.47,6.47,0,0,1-.7.32c-4.7,1.24-9.44,2.34-14.1,3.74-3.91,1.18-7.73,2.69-11.58,4.08a5.48,5.48,0,0,0-1.17.84,6.54,6.54,0,0,0,1.06.92c.94.53,1.92,1,2.87,1.47A53.78,53.78,0,0,0,21.62,119c1.15.23,2.31.42,3.6.65-3.25,1.28-6.36,2.42-9.4,3.73-3.77,1.62-7.48,3.39-11.19,5.12-.32.15-.52.54-.77.81a4.31,4.31,0,0,0,.82.62c5.45,2.23,10.86,4.57,16.92,5.35a5.2,5.2,0,0,1-.49.43C17,138.38,12.8,141,8.75,143.76,5.94,145.68,3.3,147.86.61,150a3.49,3.49,0,0,0-.61,1,5.8,5.8,0,0,0,1,.37c.89.18,1.79.3,2.68.46A57.19,57.19,0,0,0,18.14,153a40.81,40.81,0,0,0,9.69-1.79c1.62-.53,3.2-1.14,4.87-1.73a1.33,1.33,0,0,1-.12.26c-3.95,3.29-8.07,6.41-11.83,9.91-4.24,4-8.16,8.24-12.21,12.4a2.68,2.68,0,0,0-.37.78,2.64,2.64,0,0,0,.88.33c3.83,0,7.66-.09,11.49-.23a29.81,29.81,0,0,0,9.16-1.8c2.94-1.08,5.79-2.38,8.52-3.51l-.13.2c-2.08,2.74-4.31,5.4-6.22,8.26-3.13,4.68-6.06,9.48-9,14.25a3.51,3.51,0,0,0-.27,1.18,6.09,6.09,0,0,0,1.13,0c1.09-.19,2.17-.42,3.26-.64a55.43,55.43,0,0,0,13.43-4.14c1.4-.69,2.78-1.42,4.23-2.16,0,.14,0,.24,0,.31-1.79,3.06-3.66,6.08-5.33,9.2-1.81,3.37-3.44,6.84-5.12,10.29a1.65,1.65,0,0,0,0,1c0,.09.55.14.8.06,3.26-1,6.55-2,9.76-3.16a36.24,36.24,0,0,0,14.17-8.81c3.94-4.18,7.63-8.62,11.27-13.07,4.26-5.21,8.32-10.58,12.52-15.84C84.22,162.51,86,160.59,87.73,158.59Z"/><path class="cls-1" d="M152.83,177.78a29.15,29.15,0,0,0,6.27-.43,7.92,7.92,0,0,0,4.37-12.82,8.45,8.45,0,0,0-6.81-3c-7.58,0-15.16,0-22.73,0a56,56,0,0,1-11.4-1,15,15,0,0,1-7.94-4.1c1.13.07,2.27.18,3.4.21.23,0,.46-.25.69-.38-.22-.14-.44-.37-.67-.4a3.84,3.84,0,0,1-3.17-1.92,18.17,18.17,0,0,1-1.44-3.4,6.16,6.16,0,0,0-5.69-4.91A1,1,0,0,1,107,145c-.57-2-1.12-4.07-1.58-6.12-.14-.6-.31-.86-1-.86-2.79,0-5.57,0-8.36,0H94.85c.83-3.5,1.63-6.82,2.42-10.13l-.34-.12a7,7,0,0,0-.47,1.1c-.75,3.23-1.56,6.44-2.17,9.69-.42,2.17.68,5.06,3.4,5.68a25.87,25.87,0,0,0,4,.3,4.74,4.74,0,0,1,3,1.11c-.1.21-.2.41-.38.81.77-.05,1.39,0,2-.13a5.39,5.39,0,0,1,6.19,3.67,13.77,13.77,0,0,0,2.79,5.88l-6.77-1.06a3.28,3.28,0,0,0-.21,1.1,9.63,9.63,0,0,0,.58,2.73c.19.42,1,.57,1.47.86a8.12,8.12,0,0,1,3.85,4.64c.71,2.2.21,4.36-.12,6.81-1.41-2.38-3.57-3.34-6.06-4.42l.75,1.75c.55,0,1-.16,1.13,0a1.35,1.35,0,0,1,.16,1,18.61,18.61,0,0,1-3.52,6.63,2.67,2.67,0,0,1-.85.47l-.24-.31c1.47-2.06,3.06-4.06,3.62-6.63-.19-.1-.33-.19-.48-.26l-.5-.22a9.29,9.29,0,0,1-3.36,5.33.83.83,0,0,0-.3.49c-.14,1.13-.24,2.26-.38,3.64A49.25,49.25,0,0,0,109.3,175a7.89,7.89,0,0,0,2.43-5.6c1.18,1.7-.11,3.16-.5,4.7l1.34.42a60.43,60.43,0,0,0,17.83,3.09C137.87,177.74,145.35,177.77,152.83,177.78Z"/><path class="cls-1" d="M176,246.68a15.65,15.65,0,0,1-3.25.58,17.87,17.87,0,0,1-7-1.74c-2.5-1.2-5-2.49-7.46-3.72a9.05,9.05,0,0,0-8.59,0c-1.13.59-2.26,1.17-3.41,1.7a2.17,2.17,0,0,1-1.35.27c-1.27-.38-2.5-.91-3.72-1.38.44-2-.11-2.82-2-3.34a1.08,1.08,0,0,1-.59-.66,11.23,11.23,0,0,0-7.42-7.38c-1.32-.44-2.69-1.25-4.09-.22a1.08,1.08,0,0,1-1.34,0,39.09,39.09,0,0,1-13.1-10.27,68.87,68.87,0,0,1-9.28-15.5c-.3-.68-.53-1.39-.85-2.24.89.31,1.56.55,2.23.76s1.31.41,2,.61l.24-.47c-1.49-.75-3-1.51-3.58-3.21l-.34.13c.08.55.17,1.09.25,1.65l-.78-.21c-.59,1.06-.59,1.06-.21,2a65,65,0,0,0,5.71,11.1c3.17,5,6.79,9.53,11.76,12.83,2,1.29,4,2.45,6,3.67-.87,1.19-.89,1.22-1.37,1a42.38,42.38,0,0,1-9.36-6.31c-5.41-5-9.3-11.11-12.49-17.69-1-2.18-1.91-4.45-3-6.93a2.92,2.92,0,0,0,.66.25c.38,0,.76,0,1.14,0a6.27,6.27,0,0,0-.85-.71c-1.05-.6-2.11-1.17-3.18-1.75a5,5,0,0,0-.6-.18c-.11,1.05.8,1.11,1.26,1.56s1,.71,1.12,1.17a68.17,68.17,0,0,0,8.79,17,38.31,38.31,0,0,0,9.13,9.7c2.44,1.71,5,3.29,7.52,5-.15,1-.36,2.1-.5,3.23-.34,2.64.53,4.8,3.38,5.44a17.63,17.63,0,0,0,8.69,0,1,1,0,0,1,.79.2,2.18,2.18,0,0,0,3.14.72,1.36,1.36,0,0,1,.79-.12,6.29,6.29,0,0,1,4.66,3.58c.32.74.78,1.41,1.15,2.13a7.65,7.65,0,0,0,5,4.09,27.79,27.79,0,0,0,12.44.1c4.26-.79,8-2.91,11.68-5a2.29,2.29,0,0,0,.71-.55,3.33,3.33,0,0,0,.32-.87A4.64,4.64,0,0,0,176,246.68Z"/><path class="cls-1" d="M106.88,192.55c-.12-.73-.22-1.4-.31-2l-4.86.68-.68,1.39-.86-1.43-.67-.14c.94-1.13,1-1.87.26-3.93a16,16,0,0,1-5.35,4.93,2.76,2.76,0,0,1-1,.2c.18-.3.29-.7.56-.87a15.45,15.45,0,0,0,5.24-5,2.25,2.25,0,0,0-.56-2.79,2,2,0,0,0-1.83.13c-.49.34-.68,1.13-1,1.71-.18.29-.39.56-.59.84-.14-.3-.28-.6-.4-.91a1.54,1.54,0,0,1,0-.38l-.3-.13a10.58,10.58,0,0,0-1.24,2.84,9.69,9.69,0,0,1-2.42,5.83c1.58-.25,2.92-.39,4.23-.69s2.56-.75,3.84-1.13l.13.31-1.53,1c1.54,2.45,4.52,3.69,5,6.89a3.62,3.62,0,0,0,.42-.49,37.39,37.39,0,0,0,1.47-3.46c.45-1.41,1-2.9-.3-4.22a2.31,2.31,0,0,1,.1-.28Z"/><path class="cls-1" d="M107.93,177.2c-1.33.56-1.55,1-1.25,2.49a9.93,9.93,0,0,0,7.62,7.19,7.7,7.7,0,0,1-.27-5.75,5.29,5.29,0,0,0-3-5.91c-.22-.1-.53-.22-.71-.13a2.49,2.49,0,0,0-1.38,3,15.15,15.15,0,0,0,3,5.77,10.59,10.59,0,0,1,.71,1.16l-.43.25A14.91,14.91,0,0,1,107.93,177.2Z"/><path class="cls-1" d="M105.73,157c-.61-.85-1.19-1.72-1.72-2.61a16.37,16.37,0,0,1-1.86-7c-2.91,3.73.58,10.57,6,11.77-.75-2.06-.44-4.09-.09-6.16a5.48,5.48,0,0,0-5-6.17,12.14,12.14,0,0,0,1,5.51c.76,1.7,1.76,3.29,2.66,4.93A.92.92,0,0,1,105.73,157Z"/><path class="cls-1" d="M110.41,193.67a8.28,8.28,0,0,0,3.73-4.12c.57-1.44.31-1.86-1.28-2.09-1.29,3.42-3,5.91-4.34,5.94,1.32-2.14,3.06-4,3.53-6.45-.93-.58-1.85-1.19-2.81-1.73a1,1,0,0,0-.81.13,3.24,3.24,0,0,0-1.33,3.49c.37,2.16.92,4.27.08,6.55C108.26,194.82,109.36,194.29,110.41,193.67Z"/><path class="cls-1" d="M97.65,195.54c.15-.73-.69-2.22-1.16-2.14-1.17.21-2.32.51-3.56.78a20.64,20.64,0,0,0,.18,2.19c.29,1.44.67,2.86,1,4.3,0,.21-.1.45-.15.68a3,3,0,0,1-.56-.44,1.34,1.34,0,0,1-.2-.56c-.44-2-.87-4.1-1.31-6.18l-1.45.25c-.7,4.19,1.85,6.71,4.64,9.41-.27-2.41.85-4.13,1.84-5.92A8.63,8.63,0,0,0,97.65,195.54Z"/><path class="cls-1" d="M104.58,165c-.84-1.41-1.69-2.81-2.39-4.29a20.83,20.83,0,0,1-.93-3,1.33,1.33,0,0,0-1.14,1.69c.12.63.21,1.26.37,1.87.89,3.38,3.7,4.74,6.59,6.24a8.6,8.6,0,0,1-.41-2c0-1.43.26-2.86.33-4.3,0-.57.07-1.43-.26-1.67-1.38-1-2.9-1.9-4.56-2.94-.12,3.48,1.77,6.09,3.39,8.88A1.41,1.41,0,0,1,104.58,165Z"/><path class="cls-1" d="M107,170c.53-1.48.47-1.6-1.08-2.2-.1.24-.17.5-.29.73-.83,1.57-1.64,3.15-2.52,4.69-.18.33-.61.51-.92.76l-.27-.27c.13-.22.26-.43.38-.65q1.32-2.43,2.63-4.87c.3-.56.15-1-.46-1.29-.77-.41-1.47-.93-2.2-1.4a3.89,3.89,0,0,0-1.67,4.18,24.24,24.24,0,0,1,.32,3.9,12.63,12.63,0,0,1-.36,2.24c1.12-.62,2.15-1.12,3.1-1.74A8.09,8.09,0,0,0,107,170Z"/><path class="cls-1" d="M96.84,154.66c.25-.17.25-.71.36-1.07a2.66,2.66,0,0,0-.88-.07A7.29,7.29,0,0,0,92.6,156c-1.76,2.13-2,4.68-2.13,7.47A8.84,8.84,0,0,1,95.62,161a4.86,4.86,0,0,0,3.49-2.09c-1.15.52-2.24,1.14-3.37,1.7a2.8,2.8,0,0,1-1,.07c.17-.26.29-.63.53-.77,1.73-1,2-2.68,2.18-4.63-2.27,1.21-3.57,3.06-4.9,4.89a6.28,6.28,0,0,1-.92.86,4.38,4.38,0,0,1,.33-1.28A16.85,16.85,0,0,1,96.84,154.66Z"/><path class="cls-1" d="M105.84,180.55c-1.9,1.67-2.66,4.12-4,6.25a1.41,1.41,0,0,1-.12-1,11.33,11.33,0,0,1,.8-1.86c.64-1.14,1.33-2.26,2-3.41a10.79,10.79,0,0,1-1.75.57,2,2,0,0,0-1.68,1.6c-.7,2.1-.27,4.19,0,6.41,1.68-2.67,4.91-2.86,7-4.49Z"/><path class="cls-1" d="M96.55,161.57c-.87.11-1.18.66-1.41,1.37a12.5,12.5,0,0,0,0,6.62c1.31-2.72,4.53-2.81,6.31-4.55l-2.23-4.33-3.43,6.52c-.55-.67-.55-.67,2.42-6.25A9,9,0,0,1,96.55,161.57Z"/><path class="cls-1" d="M97.65,158.77c1.23-.7,2.31-1.25,3.31-1.91,1.22-.8,1.19-.84.3-2.05-.8.49-.83,1.88-2.38,2l1-1.53a3,3,0,0,0,.68-2.68,7.91,7.91,0,0,1,0-3.18,19.19,19.19,0,0,1,.9-2.95,5.62,5.62,0,0,0-3.62,6.64,15.68,15.68,0,0,1,.22,3.7A10.52,10.52,0,0,1,97.65,158.77Z"/><path class="cls-1" d="M105.59,178.51c-.1,0-.14-.08-.16-.07-1.11.53-2.21,1.11-3.35,1.6a5.52,5.52,0,0,1-1.31.18,4.67,4.67,0,0,1,.88-.94,3.89,3.89,0,0,0,1.74-4.25,27.45,27.45,0,0,0-2.81,2.17c-.93.92-1.67,2-2.53,3a2.33,2.33,0,0,1-.78.42l-.23-.33,1.77-2.51H97.62a4.09,4.09,0,0,1,.71-.88,3.42,3.42,0,0,0,1.67-2.72c-2.58,1.62-4.41,5.77-3.81,8.6,2.16-1.51,2.38-1.58,5.32-2.18A6.4,6.4,0,0,0,105.59,178.51Z"/><path class="cls-1" d="M121.74,193.73c.2-.26.54-.49.59-.77.27-1.69.44-3.4.7-5.1a8.68,8.68,0,0,0-6.3-10,16,16,0,0,0-2.07-.35l-.14.41a2.72,2.72,0,0,0,.8.43,7.85,7.85,0,0,1,6.61,5.24c.86,2.2.3,4.43-.08,6.91-1.53-2.54-4-3.28-6.31-4.38l-.22.21a3.62,3.62,0,0,0,.8.85c1.13.66,2.38,1.14,3.45,1.88a4.09,4.09,0,0,1,1.93,3.8A2.45,2.45,0,0,0,121.74,193.73Z"/><path class="cls-1" d="M82.72,193.84l.55-2.66A8,8,0,0,1,93.05,185c.23.06.53-.16.8-.24,0-.11-.07-.22-.1-.33l-.6-.12c-3.76-1-8.4.93-9.82,4.55a56.47,56.47,0,0,0-2,7.68c0,.21.2.49.31.73.17-.2.43-.38.49-.61A3.87,3.87,0,0,1,85,193.74a25.05,25.05,0,0,1,3.86-.63c.57-.07,1.1-.06,1.19-.89a28.69,28.69,0,0,0-3.75.37A30.65,30.65,0,0,0,82.72,193.84Z"/><path class="cls-1" d="M119.48,184.7c.4.84.71,1.74,1.11,2.58.1.21.4.34.6.5,0-.26.2-.55.12-.77a22.83,22.83,0,0,0-.91-2.24,14.18,14.18,0,0,0-5.43-6.19l-.24.22a6.23,6.23,0,0,0,.82,1.06A14.19,14.19,0,0,1,119.48,184.7Z"/><path class="cls-1" d="M84,191.57c0,.1.09.21.13.32.26-.12.6-.16.77-.36a16.24,16.24,0,0,1,7.37-5.3,4.22,4.22,0,0,0,1-.65C90.13,185.62,85.82,188.63,84,191.57Z"/><path class="cls-1" d="M113.5,168.22c0-.23.16-.49.09-.68a39.17,39.17,0,0,0-1.56-3.79,5,5,0,0,0-3.18-3,14.75,14.75,0,0,1,1.65,2.06c.88,1.6,1.62,3.29,2.44,4.93C113.05,167.92,113.31,168.05,113.5,168.22Z"/><path class="cls-1" d="M98.69,172.15c-.28.86-.55,1.67-.82,2.48l.26.13,2-3.75c-1.58.69-3.33.23-4.77.9,0,.14,0,.28.08.42Z"/><path class="cls-1" d="M90.75,172.28c1.2,0,2.41,0,3.62,0l.12-.32-.83-.46.76-1.44-.35-.18a3.93,3.93,0,0,1-3.33,1.61c-.18,0-.39.25-.59.39C90.35,172,90.55,172.27,90.75,172.28Z"/><path class="cls-1" d="M113.08,154.45l-4.14-2.7C108.92,152.87,111.62,154.8,113.08,154.45Z"/><path class="cls-1" d="M106.34,187.68,102,189.92l.13.45a9.79,9.79,0,0,0,3.8-1.7C106.13,188.56,106.16,188.15,106.34,187.68Z"/><path class="cls-1" d="M99.19,198.94c.63.63,1.06,1.71,2.54,1.61l-3.36-3.61C98,197.69,98,197.74,99.19,198.94Z"/><path class="cls-1" d="M94.51,162l-2.58,1.16,1.83,1.61C94,163.8,94.26,163,94.51,162Z"/><path class="cls-1" d="M96,170.64c.2,0,.44.17.58.1,1-.48,1.92-1,2.83-1.52.22-.14.29-.53.43-.8l-.18-.11c-1.12.59-2.24,1.18-3.35,1.8C96.12,170.19,96.07,170.46,96,170.64Z"/><path class="cls-1" d="M100.57,181.62l-1.43.34c.22.71.39,1.3.64,2.14Z"/></g></g></svg>