<svg xmlns="http://www.w3.org/2000/svg" viewBox="0 0 187.83 269.37"><defs><style>.cls-1{fill:#3d3f97;}</style></defs><g id="Layer_2" data-name="Layer 2"><g id="Layer_1-2" data-name="Layer 1"><path class="cls-1" d="M93.13,168.34l2.17,2.48c.71-4.41,2.73-7.45,6.94-8.75.26-.08.52-.6.56-.94a6.85,6.85,0,0,1,1.3-3.89c.61-.7,1.26-1.36,2-2.1a11.41,11.41,0,0,0-1.33-.16,6.32,6.32,0,0,1-6-4.5,11.09,11.09,0,0,1,.1-6.23c.58-2.6,1.24-5.18,1.85-7.77a2.55,2.55,0,0,0,0-.72c-.2.2-.48.37-.56.61-.21.64-.33,1.31-.49,2-.63,2.72-1.27,5.44-1.9,8.16-2.56.11-2.57,0-2.66-2.56a53.66,53.66,0,0,1,1.14-10.65,6.18,6.18,0,0,1,.29-1l.89-.15c.13-1.8,1.08-3.49.11-5.26a2,2,0,0,1,.14-1.36c.36-1,.8-2,1.22-3,.11-.26.35-.55.31-.77-.34-1.62.38-2.93,1.16-4.21a10.3,10.3,0,0,0,1.7-3.45c.38-1.86,1.82-3.12,3.16-4.37a7.75,7.75,0,0,0,.94-1.12c.86-1.13,1.66-2.31,2.58-3.38.6-.69,1.57-1.11,2-1.87a13.3,13.3,0,0,1,4.61-4.4,2.56,2.56,0,0,0,.78-.68,11.28,11.28,0,0,1,5.59-4.19,2.72,2.72,0,0,0,1-.64,10,10,0,0,1,5.17-2.83,13.28,13.28,0,0,0,1.84-.77,36.14,36.14,0,0,1,3.44-1.36c1.25-.36,2.63-.19,3.75-1a3.27,3.27,0,0,1,1.21-.41c2.25-.55,3.72.26,4.1,1.91-1,1.31-1.72,2.45-2.61,3.48-.35.41-1.07.89-1.49.79-.77-.18-.45-1-.19-1.43.47-.89,1.05-1.73,1.58-2.6a3.66,3.66,0,0,0-3.69,1,11.31,11.31,0,0,0-1.58,2.85c-.27.64-1,1.47-1.51,1.29-.79-.29-.67-.93-.45-1.53.27-.76.58-1.51.89-2.3a1.82,1.82,0,0,0-.52,0c-2.16.47-4.21,2-4.07,4.86,0,.78-.71,1.64-1.32,1.53-.82-.16-.91-.86-.81-1.52.11-.82.35-1.62.56-2.54a8.63,8.63,0,0,0-1,.29,4.25,4.25,0,0,0-2.8,4.79,1.35,1.35,0,0,1-1.2,1.54c-.82.18-1-.54-1.13-1.13a12.89,12.89,0,0,1,.11-2.07c-.76.47-1.42.83-2,1.26a3.34,3.34,0,0,0-1,4.31,1.83,1.83,0,0,1-.42,1.46.87.87,0,0,1-1.48,0,19.8,19.8,0,0,1-1.12-2.18,16.88,16.88,0,0,0-2,2.33c-.64,1-.84,2.4.77,3.22.69.36.44.9.12,1.36a1.5,1.5,0,0,1-2.27.22,12.8,12.8,0,0,1-1.45-1.88,3.75,3.75,0,0,0-1.78,2.31,2,2,0,0,0,1,2.53c.78.43.71.86.2,1.44a1.51,1.51,0,0,1-2.13.29c-.56-.34-1.08-.76-1.7-1.21a13.66,13.66,0,0,0-1.38,2.25,2,2,0,0,0,1.68,2.72c.3,0,.78.28.82.49a1.17,1.17,0,0,1-.33,1,3.07,3.07,0,0,1-1.76.51,9.46,9.46,0,0,1-2.2-.9,14.52,14.52,0,0,0-.77,1.47,2.06,2.06,0,0,0,2.07,3c.4,0,.79,0,1.19,0,.77.06,1.08.6.55,1.13a3.24,3.24,0,0,1-1.89,1,16.63,16.63,0,0,1-3.19-.37c-.1.28-.26.68-.39,1.08a2,2,0,0,0,1.89,2.79c.56,0,1.13-.17,1.69-.15.39,0,1,.12,1.11.39a1.13,1.13,0,0,1-.26,1.1,4.36,4.36,0,0,1-1.81.81,15.72,15.72,0,0,1-2.48,0c-.25,1-.47,1.92.24,2.79a3,3,0,0,0,3.69.62,29.7,29.7,0,0,0,2.82-2.09l.26.85c1.89,0,3.77,0,5.64,0,.26,0,.61-.38.75-.67,1-2,1.76-4.06,2.8-6a29.28,29.28,0,0,1,8.14-9.92,26.48,26.48,0,0,1,16.54-5q12.39.12,24.78.16a26.82,26.82,0,0,0,2.68-.19,8.51,8.51,0,0,0,7.4-10.14,8.73,8.73,0,0,0-8-6.75q-10.94-.12-21.86-.21c-.71,0-1.11-.06-1.16-.94a13.67,13.67,0,0,0-3.15-8.25,2.82,2.82,0,0,0-1.69-.94,17.3,17.3,0,0,0-3.21.14c-.67.06-1.09,0-1.27-.83-.68-3.24-1.74-6.32-4.19-8.32a22.75,22.75,0,0,0-.51-4.31c-.76-2.4-1.74-4.72-2.73-7a12.55,12.55,0,0,1-1.16-6.44,7.78,7.78,0,0,0-.19-1.79c-.46.34-.93.68-1.38,1-.08.06-.11.19-.17.28l-3.22,4.71c-.11,0-.17,0-.17,0-.84-1.81-1.66-3.62-2.49-5.43a106.4,106.4,0,0,0-19.72-29A160.88,160.88,0,0,0,77.12,6.47C74.19,4.36,71.22,2.3,68.25.25a1.69,1.69,0,0,0-1-.24c-.14,0-.33.55-.29.81.54,3.52,1,7.06,1.72,10.55A41.94,41.94,0,0,0,75.71,28c1.06,1.45,2.16,2.89,3.24,4.34-.1,0-.14.08-.16.07-.59-.39-1.19-.78-1.77-1.19a173.65,173.65,0,0,0-28.4-15.8,3.45,3.45,0,0,0-1.08-.1,3.74,3.74,0,0,0,0,1.11c.93,3,1.81,6,2.89,8.93a43.07,43.07,0,0,0,9.74,15.9C61.1,42.2,62,43.09,63,44c-4.94-1.63-9.77-3.32-14.66-4.8a93.48,93.48,0,0,0-15-3.42C37,43.31,41.09,50.46,47.53,56c-2.19-.43-4.29-1-6.42-1.4q-5.94-1.14-11.9-2.15c-1.79-.3-3.62-.47-5.43-.66-.25,0-.69.11-.73.26a1.16,1.16,0,0,0,.2.83c.77,1.17,1.53,2.35,2.38,3.45,2.35,3,4.62,6.15,7.16,9a75.54,75.54,0,0,0,6,5.45,6.42,6.42,0,0,1-.76,0c-3.27-.35-6.54-.73-9.81-1.05-1.54-.15-3.09-.23-4.63-.29-3.46-.13-6.91-.24-10.37-.35a1.67,1.67,0,0,0-.32,0c-.84.18-1,.62-.45,1.25,2.22,2.46,4.4,5,6.7,7.33A42.59,42.59,0,0,0,35.76,88.55l4.57,1.58a2.51,2.51,0,0,1-.49.09A140.79,140.79,0,0,0,17.63,91c-4.16.38-8.29,1.11-12.43,1.71-.31,0-.84.3-.84.46a1.4,1.4,0,0,0,.46,1c1.69,1.39,3.43,2.73,5.14,4.1,6.74,5.44,14.24,9.19,23.13,10.33a5.61,5.61,0,0,1-.74.34c-5,1.32-10,2.49-15,4-4.16,1.25-8.21,2.85-12.3,4.33a5.79,5.79,0,0,0-1.24.89A7.93,7.93,0,0,0,5,119c1,.56,2,1,3,1.56A57.15,57.15,0,0,0,23,126.3c1.22.25,2.45.45,3.82.69-3.45,1.36-6.75,2.57-10,4-4,1.73-7.93,3.6-11.88,5.44-.33.15-.54.57-.81.86a4.38,4.38,0,0,0,.87.65c5.78,2.38,11.52,4.86,18,5.68a5.86,5.86,0,0,1-.52.46c-4.38,2.85-8.82,5.6-13.12,8.55-3,2-5.78,4.36-8.64,6.58a3.63,3.63,0,0,0-.65,1,5.72,5.72,0,0,0,1,.4c.94.19,1.9.32,2.85.49a61,61,0,0,0,15.37,1.3,43.18,43.18,0,0,0,10.28-1.91c1.72-.56,3.4-1.2,5.17-1.83-.07.15-.08.23-.13.27C30.38,162.4,26,165.72,22,169.44c-4.5,4.19-8.67,8.74-13,13.15a3,3,0,0,0-.39.83,2.77,2.77,0,0,0,.94.35c4.06-.05,8.13-.09,12.19-.24a31.62,31.62,0,0,0,9.73-1.92c3.12-1.13,6.14-2.52,9-3.72,0-.08,0,.07-.14.21-2.21,2.92-4.57,5.73-6.6,8.77-3.32,5-6.44,10.07-9.61,15.13a3.82,3.82,0,0,0-.29,1.25,6.88,6.88,0,0,0,1.2,0c1.16-.2,2.31-.44,3.46-.68a57.91,57.91,0,0,0,14.26-4.4c1.49-.73,3-1.5,4.49-2.28a1.34,1.34,0,0,1,0,.33c-1.9,3.25-3.89,6.44-5.66,9.75-1.92,3.59-3.65,7.27-5.43,10.93a1.73,1.73,0,0,0,0,1.08c0,.08.58.14.84.06,3.46-1.09,7-2.11,10.36-3.36a38.36,38.36,0,0,0,15-9.35c4.19-4.44,8.11-9.14,12-13.87,4.52-5.53,8.83-11.23,13.29-16.82C89.39,172.49,91.28,170.47,93.13,168.34Z"/><path class="cls-1" d="M162.22,188.71a31.45,31.45,0,0,0,6.66-.46,8.39,8.39,0,0,0,4.63-13.6,8.91,8.91,0,0,0-7.22-3.21c-8-.05-16.09,0-24.13,0a59.77,59.77,0,0,1-12.09-1.08,15.79,15.79,0,0,1-8.43-4.35c1.2.08,2.4.19,3.6.22.24,0,.49-.26.74-.4-.24-.15-.47-.39-.72-.42a4.09,4.09,0,0,1-3.36-2,19.76,19.76,0,0,1-1.53-3.61c-.94-3.18-2.73-4.77-6-5.21a1.07,1.07,0,0,1-.72-.6c-.6-2.15-1.19-4.31-1.68-6.49-.15-.64-.33-.92-1-.91-3,0-5.91,0-8.87,0h-1.36c.88-3.71,1.73-7.23,2.57-10.75l-.36-.12a7.81,7.81,0,0,0-.5,1.16c-.79,3.43-1.65,6.84-2.31,10.29-.44,2.3.73,5.37,3.62,6a25.29,25.29,0,0,0,4.19.32,5.13,5.13,0,0,1,3.23,1.18l-.41.86a20.91,20.91,0,0,0,2.12-.14,5.73,5.73,0,0,1,6.57,3.9,14.74,14.74,0,0,0,3,6.24l-7.18-1.12a3.12,3.12,0,0,0-.22,1.16,9.92,9.92,0,0,0,.61,2.9c.2.45,1,.6,1.56.91a8.64,8.64,0,0,1,4.09,4.93c.75,2.34.23,4.63-.12,7.23-1.5-2.52-3.79-3.54-6.44-4.69.37.86.62,1.44.79,1.86.59,0,1.11-.18,1.21,0a1.45,1.45,0,0,1,.17,1.08,19.71,19.71,0,0,1-3.75,7,2.93,2.93,0,0,1-.89.49l-.25-.32c1.55-2.19,3.24-4.32,3.83-7l-.51-.28-.52-.23a9.86,9.86,0,0,1-3.58,5.66.86.86,0,0,0-.31.52c-.15,1.2-.26,2.4-.41,3.86a53.38,53.38,0,0,0,5.58-3.69c1.74-1.49,2.37-3.66,2.58-5.95,1.24,1.8-.12,3.35-.54,5l1.43.45a63.87,63.87,0,0,0,18.92,3.27C146.35,188.67,154.28,188.7,162.22,188.71Z"/><path class="cls-1" d="M186.86,261.84a16.81,16.81,0,0,1-3.45.62,19,19,0,0,1-7.41-1.85c-2.66-1.27-5.27-2.64-7.91-3.95a9.61,9.61,0,0,0-9.12.06c-1.2.62-2.4,1.24-3.63,1.8a2.35,2.35,0,0,1-1.43.29c-1.35-.41-2.65-1-3.95-1.47.47-2.09-.11-3-2.07-3.54a1.16,1.16,0,0,1-.63-.7,11.93,11.93,0,0,0-7.88-7.84c-1.4-.47-2.86-1.32-4.34-.24a1.14,1.14,0,0,1-1.42,0,41.45,41.45,0,0,1-13.9-10.9,72.38,72.38,0,0,1-9.86-16.46c-.31-.72-.56-1.47-.9-2.37,1,.32,1.65.58,2.36.81l2.09.64.26-.5c-1.58-.8-3.16-1.6-3.8-3.41l-.36.14.27,1.75-.83-.22c-.63,1.13-.62,1.13-.22,2.15a68.28,68.28,0,0,0,6.06,11.78c3.37,5.26,7.21,10.11,12.48,13.61,2.08,1.38,4.25,2.6,6.38,3.9-.92,1.27-.94,1.3-1.45,1a44.89,44.89,0,0,1-9.95-6.7c-5.74-5.31-9.87-11.79-13.25-18.77-1.12-2.31-2-4.73-3.14-7.36a4.08,4.08,0,0,0,.7.27c.4,0,.8,0,1.21,0a7.11,7.11,0,0,0-.9-.76c-1.11-.64-2.24-1.24-3.37-1.85a4.19,4.19,0,0,0-.64-.19c-.12,1.11.85,1.18,1.33,1.65s1,.75,1.2,1.25a72.09,72.09,0,0,0,9.32,18,40.93,40.93,0,0,0,9.69,10.3c2.59,1.81,5.28,3.48,8,5.26-.16,1-.37,2.22-.53,3.42-.36,2.81.57,5.1,3.59,5.78a18.73,18.73,0,0,0,9.23,0,1,1,0,0,1,.83.21,2.32,2.32,0,0,0,3.34.77,1.36,1.36,0,0,1,.84-.13,6.64,6.64,0,0,1,4.94,3.8c.34.78.83,1.49,1.22,2.26a8.1,8.1,0,0,0,5.29,4.34,29.46,29.46,0,0,0,13.21.1c4.51-.83,8.45-3.08,12.39-5.29a2.2,2.2,0,0,0,.76-.58,3.88,3.88,0,0,0,.34-.92A4.53,4.53,0,0,0,186.86,261.84Z"/><path class="cls-1" d="M113.45,204.38c-.12-.77-.23-1.48-.33-2.06L108,203c-.31.64-.51,1.06-.72,1.48l-.91-1.52-.72-.15c1-1.2,1-2,.28-4.17a17,17,0,0,1-5.68,5.24,3.1,3.1,0,0,1-1,.21c.2-.31.32-.74.59-.92a16.43,16.43,0,0,0,5.57-5.3,2.4,2.4,0,0,0-.59-3,2.16,2.16,0,0,0-1.94.15c-.53.36-.73,1.19-1.09,1.81-.19.31-.42.6-.63.9-.14-.33-.3-.64-.42-1a1.33,1.33,0,0,1,0-.4l-.33-.14a11.52,11.52,0,0,0-1.31,3,10.26,10.26,0,0,1-2.57,6.19c1.68-.27,3.11-.42,4.5-.74s2.71-.79,4.07-1.2l.13.33L103.51,205c1.63,2.6,4.79,3.92,5.32,7.32a3,3,0,0,0,.44-.53,36.8,36.8,0,0,0,1.57-3.67c.47-1.5,1-3.08-.32-4.48l.1-.3Z"/><path class="cls-1" d="M114.57,188.09c-1.41.6-1.65,1.09-1.33,2.64a10.55,10.55,0,0,0,8.08,7.64,8.2,8.2,0,0,1-.28-6.11A5.61,5.61,0,0,0,117.9,186a1.08,1.08,0,0,0-.76-.14,2.64,2.64,0,0,0-1.46,3.14,16.09,16.09,0,0,0,3.13,6.13,14,14,0,0,1,.76,1.23l-.46.26A15.71,15.71,0,0,1,114.57,188.09Z"/><path class="cls-1" d="M112.23,166.63c-.65-.9-1.26-1.82-1.82-2.78a17.07,17.07,0,0,1-2-7.41c-3.09,4,.61,11.22,6.33,12.5-.81-2.2-.47-4.34-.1-6.55a5.81,5.81,0,0,0-5.34-6.54,12.89,12.89,0,0,0,1,5.84c.81,1.81,1.87,3.5,2.82,5.24A1,1,0,0,1,112.23,166.63Z"/><path class="cls-1" d="M117.2,205.58a8.9,8.9,0,0,0,4-4.38c.61-1.53.33-2-1.37-2.22-1.36,3.63-3.19,6.28-4.59,6.31,1.39-2.28,3.24-4.2,3.74-6.84-1-.62-2-1.27-3-1.84a1,1,0,0,0-.86.14,3.45,3.45,0,0,0-1.41,3.7c.4,2.29,1,4.53.09,7C114.92,206.79,116.08,206.23,117.2,205.58Z"/><path class="cls-1" d="M103.65,207.56c.16-.78-.73-2.36-1.23-2.27-1.24.22-2.47.53-3.78.83a20.47,20.47,0,0,0,.2,2.32c.3,1.53.71,3,1,4.57,0,.21-.11.47-.17.72a3.48,3.48,0,0,1-.59-.47,1.48,1.48,0,0,1-.21-.6c-.47-2.17-.93-4.35-1.4-6.55l-1.53.26c-.74,4.45,2,7.12,4.93,10-.29-2.56.89-4.38,1.94-6.28A9,9,0,0,0,103.65,207.56Z"/><path class="cls-1" d="M111,175.14c-.89-1.49-1.8-3-2.54-4.56a23,23,0,0,1-1-3.21,1.41,1.41,0,0,0-1.2,1.8c.12.66.22,1.33.39,2,1,3.58,3.92,5,7,6.63a9.3,9.3,0,0,1-.43-2.08c0-1.53.27-3,.35-4.57,0-.6.07-1.52-.28-1.78-1.46-1.1-3.07-2-4.84-3.11-.12,3.69,1.88,6.46,3.6,9.43A1.5,1.5,0,0,1,111,175.14Z"/><path class="cls-1" d="M113.57,180.49c.55-1.58.5-1.71-1.15-2.35-.11.26-.18.54-.31.78-.88,1.67-1.74,3.34-2.67,5-.2.34-.65.54-1,.8-.1-.09-.19-.19-.28-.28.13-.23.27-.46.39-.7.94-1.72,1.88-3.43,2.8-5.16.32-.6.16-1-.49-1.37-.81-.44-1.56-1-2.33-1.48a4.1,4.1,0,0,0-1.77,4.44,27.1,27.1,0,0,1,.34,4.14,14.38,14.38,0,0,1-.39,2.37c1.19-.66,2.29-1.19,3.29-1.85A8.57,8.57,0,0,0,113.57,180.49Z"/><path class="cls-1" d="M102.79,164.17c.27-.18.27-.75.39-1.14a2.77,2.77,0,0,0-.94-.07,7.67,7.67,0,0,0-3.95,2.61c-1.87,2.26-2.08,5-2.25,7.93a9.35,9.35,0,0,1,5.46-2.59,5.15,5.15,0,0,0,3.7-2.22c-1.22.55-2.38,1.21-3.57,1.8a2.94,2.94,0,0,1-1,.08c.19-.28.31-.67.57-.82,1.84-1.09,2.18-2.85,2.31-4.92-2.41,1.28-3.78,3.26-5.2,5.19a6.59,6.59,0,0,1-1,.92,4.54,4.54,0,0,1,.36-1.36A17.92,17.92,0,0,1,102.79,164.17Z"/><path class="cls-1" d="M112.34,191.65c-2,1.77-2.82,4.37-4.25,6.63a1.47,1.47,0,0,1-.13-1.08,13.3,13.3,0,0,1,.85-2c.68-1.22,1.42-2.4,2.14-3.62a11.34,11.34,0,0,1-1.85.6,2.1,2.1,0,0,0-1.78,1.7c-.75,2.23-.29,4.45,0,6.8,1.78-2.83,5.21-3,7.45-4.76Z"/><path class="cls-1" d="M102.48,171.5c-.92.12-1.24.7-1.49,1.45a13.21,13.21,0,0,0,0,7c1.4-2.88,4.81-3,6.7-4.82l-2.37-4.6-3.64,6.92c-.58-.71-.58-.71,2.57-6.64A8.64,8.64,0,0,1,102.48,171.5Z"/><path class="cls-1" d="M103.65,168.53c1.31-.75,2.45-1.33,3.52-2,1.29-.85,1.26-.89.32-2.17-.86.52-.89,2-2.53,2.1l1.1-1.62a3.13,3.13,0,0,0,.72-2.85,8.3,8.3,0,0,1,0-3.37,22,22,0,0,1,1-3.13,6,6,0,0,0-3.84,7,16.56,16.56,0,0,1,.24,3.93A12.09,12.09,0,0,1,103.65,168.53Z"/><path class="cls-1" d="M112.08,189.48c-.11,0-.15-.08-.17-.07-1.18.56-2.35,1.17-3.55,1.69a4.93,4.93,0,0,1-1.4.19,5.55,5.55,0,0,1,.94-1,4.13,4.13,0,0,0,1.84-4.51,30.86,30.86,0,0,0-3,2.3c-1,1-1.77,2.16-2.68,3.22a2.86,2.86,0,0,1-.83.45l-.25-.36,1.88-2.66h-1.26a4.63,4.63,0,0,1,.75-.93,3.66,3.66,0,0,0,1.78-2.89c-2.74,1.72-4.69,6.12-4.05,9.13,2.29-1.61,2.53-1.68,5.65-2.31A6.84,6.84,0,0,0,112.08,189.48Z"/><path class="cls-1" d="M129.22,205.63c.22-.26.58-.51.63-.81.28-1.8.46-3.61.74-5.41a9.21,9.21,0,0,0-6.68-10.57,20.2,20.2,0,0,0-2.2-.37l-.15.44a3,3,0,0,0,.85.46,8.31,8.31,0,0,1,7,5.56c.92,2.34.32,4.7-.08,7.33-1.62-2.7-4.28-3.48-6.7-4.64l-.24.22a4.31,4.31,0,0,0,.85.9c1.21.7,2.53,1.21,3.67,2a4.31,4.31,0,0,1,2,4A2.44,2.44,0,0,0,129.22,205.63Z"/><path class="cls-1" d="M87.8,205.76c.19-.89.38-1.86.59-2.83a8.54,8.54,0,0,1,10.38-6.61c.24.07.56-.16.85-.25,0-.11-.07-.23-.11-.35-.21,0-.43-.07-.63-.12-4-1.11-8.92,1-10.43,4.82a58.73,58.73,0,0,0-2.07,8.16c-.06.22.2.52.32.77.18-.21.46-.4.52-.64a4.15,4.15,0,0,1,3-3.07,27.81,27.81,0,0,1,4.1-.66c.6-.07,1.16-.07,1.25-.95a30.33,30.33,0,0,0-4,.4A31,31,0,0,0,87.8,205.76Z"/><path class="cls-1" d="M126.82,196.05c.43.9.76,1.84,1.18,2.74.11.23.42.36.64.53.05-.27.21-.59.13-.82-.28-.8-.61-1.6-1-2.37a15,15,0,0,0-5.76-6.57,2.73,2.73,0,0,0-.25.23,5.68,5.68,0,0,0,.87,1.12A15.12,15.12,0,0,1,126.82,196.05Z"/><path class="cls-1" d="M89.21,203.34c0,.12.09.23.13.35.28-.13.65-.18.82-.39A17.22,17.22,0,0,1,98,197.68a4.65,4.65,0,0,0,1-.69C95.67,197,91.09,200.23,89.21,203.34Z"/><path class="cls-1" d="M120.48,178.56c0-.24.16-.52.09-.72a40.35,40.35,0,0,0-1.65-4c-.73-1.42-1.6-2.77-3.38-3.22a15.62,15.62,0,0,1,1.75,2.18c.93,1.71,1.72,3.5,2.6,5.24C120,178.24,120.28,178.38,120.48,178.56Z"/><path class="cls-1" d="M104.76,182.73c-.31.91-.59,1.77-.87,2.64l.27.13,2.16-4c-1.68.73-3.54.23-5.07.95l.09.44Z"/><path class="cls-1" d="M96.33,182.87c1.28,0,2.56,0,3.84,0,0-.11.09-.22.13-.34l-.89-.49c.26-.48.54-1,.81-1.52l-.37-.19a4.18,4.18,0,0,1-3.53,1.7c-.2,0-.42.27-.62.42C95.91,182.61,96.11,182.86,96.33,182.87Z"/><path class="cls-1" d="M120,163.94l-4.39-2.86C115.62,162.27,118.48,164.31,120,163.94Z"/><path class="cls-1" d="M112.88,199.22c-1.74.89-3.17,1.64-4.6,2.38l.13.47a10.49,10.49,0,0,0,4-1.8C112.66,200.15,112.68,199.72,112.88,199.22Z"/><path class="cls-1" d="M105.28,211.17c.68.67,1.13,1.82,2.7,1.71L104.42,209C104.05,209.84,104,209.89,105.28,211.17Z"/><path class="cls-1" d="M100.32,172l-2.74,1.23,2,1.71Z"/><path class="cls-1" d="M101.86,181.13c.22,0,.48.18.63.1,1-.5,2-1,3-1.61.23-.14.3-.56.45-.85l-.18-.12c-1.19.63-2.39,1.25-3.56,1.91C102,180.66,102,180.94,101.86,181.13Z"/><path class="cls-1" d="M106.75,192.78l-1.51.36c.22.76.41,1.38.68,2.28C106.24,194.4,106.46,193.68,106.75,192.78Z"/></g></g></svg>