<svg enable-background="new 0 0 1920 188" viewBox="0 0 1920 188" xmlns="http://www.w3.org/2000/svg"><g fill="#fff"><path d="m106.1 151.4c-6.6 0-11.9 5.3-11.8 11.9 0 6.6 5.3 11.9 11.9 11.8 6.6 0 11.9-5.3 11.8-11.9 0-6.5-5.3-11.8-11.9-11.8zm0 16.6c-2.6 0-4.8-2.1-4.8-4.8 0-2.6 2.1-4.8 4.8-4.8 2.6 0 4.8 2.1 4.8 4.8s-2.2 4.8-4.8 4.8z"/><path d="m230.1 151.4c-6.6 0-11.9 5.3-11.9 11.9s5.3 11.9 11.9 11.9 11.9-5.3 11.9-11.9c-.1-6.6-5.4-11.9-11.9-11.9zm0 16.6c-2.6 0-4.8-2.1-4.8-4.8s2.1-4.8 4.8-4.8 4.8 2.1 4.8 4.8c-.1 2.7-2.2 4.8-4.8 4.8z"/><path d="m254.8 110.4-31.7-3.6-16.9-27.5c-5.2-8.4-14.4-13.6-24.3-13.6h-57.5c-16.6 0-31.1 11.1-35.5 27.1l-.4 1.6c-2.2 8-8.4 14.2-16.3 16.5-6.5 1.8-11 7.7-11 14.4v39.3c0 2 1.6 3.6 3.5 3.6h18.3c2.7 12.9 15.3 21.1 28.1 18.4 9.3-1.9 16.5-9.2 18.4-18.4h77.3c2.7 12.9 15.3 21.1 28.2 18.4 9.3-1.9 16.5-9.2 18.4-18.4h19.2c1.8 0 3.3-1.4 3.5-3.1l2.8-24.4c1.6-15.1-9.1-28.6-24.1-30.3zm-186.7 46.3h15.1c-.4 1.4-.7 2.9-.8 4.3h-14.3zm38 23.3c-9.2 0-16.7-7.5-16.7-16.7s7.5-16.7 16.7-16.7 16.7 7.5 16.7 16.7-7.4 16.7-16.7 16.7zm124 0c-9.2 0-16.7-7.5-16.7-16.7s7.5-16.7 16.7-16.7 16.7 7.5 16.7 16.7-7.5 16.7-16.7 16.7zm0-40.5c-7.8 0-15 3.8-19.5 10.1h-63.2c-2 0-3.6 1.6-3.6 3.6s1.6 3.6 3.6 3.6h59.8c-.4 1.4-.7 2.9-.8 4.3h-76.6c-1.2-13.1-12.8-22.7-25.9-21.5-7 .7-13.3 4.3-17.3 10h-18.5v-24.3c0-3.5 2.4-6.6 5.8-7.6 10.3-2.9 18.4-11.1 21.3-21.4l.4-1.6c3.6-12.9 15.3-21.8 28.7-21.9h57.5c7.5 0 14.4 3.9 18.3 10.2l17.9 29c.6.9 1.5 1.5 2.6 1.7l33.4 3.8c7.3.8 13.6 5.6 16.4 12.4h-11.1c-2 0-3.6 1.6-3.6 3.6s1.6 3.6 3.6 3.6h12.6c0 .9 0 1.9-.1 2.8l-1.1 9.8h-21.1c-4.5-6.4-11.8-10.2-19.5-10.2zm23.7 21.5c-.1-1.5-.4-2.9-.8-4.3h16.9l-.5 4.3z"/><path d="m182 119.3h-7.5c-2 0-3.6 1.6-3.6 3.5 0 2 1.6 3.6 3.5 3.6h7.5c2 0 3.6-1.6 3.6-3.5.1-2-1.5-3.6-3.5-3.6z"/><path d="m134.4 122.8c0-2-1.6-3.6-3.6-3.6h-7.5c-2 0-3.6 1.6-3.6 3.5 0 2 1.6 3.6 3.5 3.6h7.5c2.1.1 3.7-1.5 3.7-3.5z"/><path d="m138.8 151.8c-.7-1.8-2.8-2.7-4.6-1.9-1.8.7-2.7 2.8-1.9 4.6.7 1.8 2.8 2.7 4.6 1.9l.6-.3c1.3-1 1.9-2.7 1.3-4.3z"/><path d="m196.4 85.3c-3.1-5.1-8.6-8.1-14.6-8.2h-57.5c-11.4 0-21.5 7.7-24.5 18.7l-.4 1.6c-1.2 4.2-3 11.5-3 11.8-.5 1.9.7 3.8 2.6 4.3.3.1.6.1.8.1h107.7c2 0 3.5-1.6 3.5-3.6 0-.6-.2-1.3-.5-1.8zm-41-1.1v22.3h-32.7v-22.2c.5 0 1.1-.1 1.6-.1zm-49.2 15.1.4-1.6c1.3-4.8 4.6-8.9 9-11.2v20.1h-11.3c.6-2.4 1.4-5.3 1.9-7.3zm56.4 7.2v-22.3h19.3c3.5 0 6.7 1.8 8.5 4.8l10.8 17.6z"/><path d="m329.2 151.4c-6.6 0-11.9 5.3-11.9 11.8 0 6.6 5.3 11.9 11.8 11.9 6.6 0 11.9-5.3 11.9-11.8 0 0 0 0 0-.1 0-6.5-5.3-11.7-11.8-11.8zm0 16.6c-2.6 0-4.8-2.1-4.8-4.7s2.1-4.8 4.8-4.8c2.6 0 4.8 2.1 4.8 4.7-.1 2.7-2.2 4.8-4.8 4.8z"/><path d="m453.1 151.4c-6.6 0-11.9 5.3-11.8 11.9 0 6.6 5.3 11.9 11.9 11.8 6.5 0 11.8-5.3 11.8-11.9 0-6.5-5.3-11.8-11.9-11.8zm0 16.6c-2.6 0-4.8-2.1-4.8-4.7s2.1-4.8 4.8-4.8c2.6 0 4.8 2.1 4.8 4.7 0 2.7-2.2 4.8-4.8 4.8z"/><path d="m477.8 110.4-31.7-3.6-16.9-27.5c-5.2-8.4-14.4-13.6-24.4-13.6h-57.5c-16.6 0-31.1 11.1-35.5 27.1l-.5 1.6c-2.2 8-8.4 14.2-16.4 16.5-6.5 1.8-11 7.7-11 14.4v39.3c0 2 1.6 3.6 3.5 3.6h18.4c2.7 12.9 15.3 21.1 28.1 18.4 9.3-1.9 16.5-9.2 18.4-18.4h77.4c2.7 12.9 15.3 21.1 28.1 18.4 9.3-1.9 16.5-9.2 18.4-18.4h19.2c1.8 0 3.3-1.4 3.5-3.1l2.8-24.4c1.9-15.1-8.9-28.6-23.9-30.3zm-186.6 46.3h15.1c-.4 1.4-.7 2.9-.8 4.3h-14.3zm38 23.3c-9.2 0-16.7-7.5-16.7-16.7s7.5-16.7 16.7-16.7 16.7 7.5 16.7 16.7-7.5 16.7-16.7 16.7zm123.9 0c-9.2 0-16.7-7.5-16.7-16.7s7.5-16.7 16.7-16.7 16.7 7.5 16.7 16.7-7.5 16.7-16.7 16.7zm0-40.5c-7.8 0-15 3.8-19.5 10.1h-63.2c-2 0-3.5 1.6-3.5 3.6s1.6 3.6 3.5 3.6h59.8c-.4 1.4-.7 2.9-.8 4.3h-76.6c-1.2-13.1-12.8-22.7-25.9-21.5-7 .7-13.3 4.3-17.3 10h-18.5v-24.3c0-3.5 2.4-6.6 5.8-7.6 10.3-2.9 18.4-11.1 21.3-21.4l.5-1.6c3.6-12.9 15.3-21.8 28.7-21.9h57.5c7.5 0 14.4 3.9 18.3 10.2l17.8 29c.6.9 1.5 1.5 2.6 1.7l33.4 3.8c7.3.8 13.6 5.6 16.4 12.4h-11.1c-2 0-3.5 1.6-3.5 3.6s1.6 3.6 3.5 3.6h12.7c0 .9 0 1.9-.1 2.8l-1.1 9.8h-21.2c-4.4-6.4-11.7-10.2-19.5-10.2zm23.7 21.5c-.1-1.5-.4-2.9-.8-4.3h16.9l-.5 4.3z"/><path d="m405.1 119.3h-7.5c-2 0-3.5 1.6-3.5 3.6s1.6 3.5 3.5 3.5h7.5c2 0 3.6-1.6 3.6-3.5-.1-2-1.6-3.6-3.6-3.6z"/><path d="m357.4 122.8c0-2-1.6-3.5-3.5-3.6h-7.5c-2 0-3.5 1.6-3.5 3.6s1.6 3.5 3.5 3.5h7.5c1.9.1 3.5-1.5 3.5-3.5z"/><path d="m361.8 151.8c-.8-1.8-2.8-2.7-4.6-1.9s-2.7 2.8-1.9 4.6 2.8 2.7 4.6 1.9c.2-.1.4-.2.6-.4 1.4-.9 1.9-2.6 1.3-4.2-.1-.2.1.2 0 0z"/><path d="m419.5 85.3c-3.1-5.1-8.6-8.1-14.6-8.2h-57.5c-11.4 0-21.5 7.7-24.5 18.7l-.4 1.6c-1.2 4.2-3 11.5-3 11.8-.5 1.9.7 3.8 2.6 4.3.3.1.6.1.9.1h107.8c1.3 0 2.5-.7 3.1-1.8s.6-2.5-.1-3.6zm-41-1.1v22.3h-32.7v-22.2c.5 0 1.1-.1 1.6-.1zm-49.2 15.1.5-1.6c1.3-4.8 4.6-8.9 9-11.2v20.1h-11.3c.5-2.4 1.2-5.3 1.8-7.3zm56.3 7.2v-22.3h19.3c3.5 0 6.7 1.8 8.6 4.8l10.8 17.6z"/><path d="m597.2 151.4c-6.6 0-11.9 5.3-11.9 11.8 0 6.6 5.3 11.9 11.8 11.9s11.9-5.3 11.9-11.8c0 0 0 0 0-.1 0-6.5-5.3-11.7-11.8-11.8zm0 16.6c-2.6 0-4.8-2.1-4.8-4.7s2.1-4.8 4.8-4.8c2.6 0 4.8 2.1 4.8 4.7-.1 2.7-2.2 4.8-4.8 4.8z"/><path d="m721.1 151.4c-6.6 0-11.9 5.3-11.8 11.9 0 6.6 5.3 11.9 11.9 11.8 6.5 0 11.8-5.3 11.8-11.9 0-6.5-5.3-11.8-11.9-11.8zm0 16.6c-2.6 0-4.8-2.1-4.8-4.7s2.1-4.8 4.8-4.8c2.6 0 4.8 2.1 4.8 4.7 0 2.7-2.2 4.8-4.8 4.8z"/><path d="m745.8 110.4-31.7-3.6-16.9-27.5c-5.2-8.4-14.4-13.6-24.3-13.6h-57.5c-16.6 0-31.1 11.1-35.5 27.1l-.5 1.6c-2.2 8-8.4 14.2-16.4 16.5-6.5 1.8-10.9 7.7-11 14.4v39.3c0 2 1.6 3.6 3.5 3.6h18.3c2.7 12.9 15.3 21.1 28.1 18.4 9.3-1.9 16.5-9.2 18.4-18.4h77.3c2.7 12.9 15.3 21.1 28.1 18.4 9.3-1.9 16.5-9.2 18.4-18.4h19.2c1.8 0 3.3-1.4 3.5-3.1l2.8-24.4c2-15.1-8.8-28.6-23.8-30.3zm-186.6 46.3h15.1c-.4 1.4-.7 2.9-.8 4.3h-14.3zm38 23.3c-9.2 0-16.7-7.5-16.7-16.7s7.5-16.7 16.7-16.7 16.7 7.5 16.7 16.7-7.5 16.7-16.7 16.7zm123.9 0c-9.2 0-16.7-7.5-16.7-16.7s7.5-16.7 16.7-16.7 16.7 7.5 16.7 16.7-7.5 16.7-16.7 16.7zm0-40.5c-7.8 0-15 3.8-19.5 10.1h-63.2c-2 0-3.5 1.6-3.5 3.6s1.6 3.6 3.5 3.6h59.8c-.4 1.4-.7 2.9-.8 4.3h-76.6c-1.2-13.1-12.8-22.7-25.9-21.5-7 .7-13.3 4.3-17.3 10h-18.5v-24.3c0-3.5 2.4-6.6 5.8-7.6 10.3-2.9 18.4-11.1 21.3-21.4l.5-1.6c3.6-12.9 15.3-21.8 28.7-21.9h57.5c7.5 0 14.4 3.9 18.3 10.2l17.8 29c.6.9 1.5 1.5 2.6 1.7l33.4 3.8c7.3.8 13.6 5.6 16.4 12.4h-11.1c-2 0-3.5 1.6-3.5 3.6s1.6 3.6 3.5 3.6h12.7c0 .9 0 1.9-.1 2.8l-1.1 9.8h-21.2c-4.4-6.4-11.7-10.2-19.5-10.2zm23.7 21.5c-.1-1.5-.4-2.9-.8-4.3h16.9l-.5 4.3z"/><path d="m673.1 119.3h-7.5c-2 0-3.6 1.6-3.6 3.5 0 2 1.6 3.6 3.5 3.6h7.5c2 0 3.5-1.6 3.5-3.6.1-1.9-1.5-3.5-3.4-3.5z"/><path d="m625.4 122.8c0-2-1.6-3.5-3.5-3.6h-7.5c-2 0-3.6 1.6-3.6 3.5 0 2 1.6 3.6 3.5 3.6h7.5c2 .1 3.6-1.5 3.6-3.5z"/><path d="m629.8 151.8c-.8-1.8-2.8-2.7-4.6-1.9s-2.7 2.8-1.9 4.6 2.8 2.7 4.6 1.9c.2-.1.4-.2.6-.4 1.4-.9 1.9-2.6 1.3-4.2z"/><path d="m687.5 85.3c-3.1-5.1-8.6-8.1-14.6-8.2h-57.5c-11.4 0-21.5 7.7-24.5 18.7l-.4 1.6c-1.2 4.2-3 11.5-3 11.8-.5 1.9.7 3.8 2.6 4.3.3.1.6.1.9.1h107.7c1.3 0 2.5-.7 3.1-1.8s.6-2.5-.1-3.6zm-41-1.1v22.3h-32.7v-22.2c.5 0 1.1-.1 1.6-.1zm-49.2 15.1.5-1.6c1.3-4.8 4.6-8.9 9-11.2v20.1h-11.3c.5-2.4 1.2-5.3 1.8-7.3zm56.3 7.2v-22.3h19.3c3.5 0 6.7 1.8 8.5 4.8l10.8 17.6z"/><path d="m253.7 96.6c-2.6-3.3-4.6-6.9-6.1-10.8-.2-.8-1-1.2-1.8-1.1-.8.2-1.2 1.1-1 1.8 1.7 4.3 4 8.4 6.9 12.1.6.6 1.6.5 2.1-.1.5-.5.5-1.4-.1-1.9z"/><path d="m262.5 93.4.5-8.4c0-.8-.7-1.5-1.5-1.5s-1.5.7-1.5 1.5l-.5 8.4c0 .8.6 1.5 1.4 1.6h.1c.8 0 1.5-.7 1.5-1.6z"/><path d="m268.3 102.9 9.3-11.6c.6-.6.6-1.5 0-2.1s-1.5-.6-2.1 0l-9.4 11.6c-.6.6-.6 1.5 0 2.1.7.6 1.7.6 2.2 0z"/><path d="m1047.8 150.9c-6.6 0-11.9 5.3-11.9 11.9s5.3 11.9 11.9 11.9 11.9-5.3 11.9-11.9-5.3-11.9-11.9-11.9zm0 16.6c-2.6 0-4.8-2.1-4.8-4.7s2.1-4.8 4.8-4.8 4.8 2.1 4.8 4.7c0 2.7-2.1 4.8-4.8 4.8z"/><path d="m1171.8 150.9c-6.6 0-11.9 5.3-11.9 11.9s5.3 11.9 11.9 11.9 11.9-5.3 11.9-11.9c-.1-6.6-5.4-11.9-11.9-11.9zm0 16.6c-2.6 0-4.8-2.1-4.8-4.7s2.1-4.8 4.8-4.8 4.8 2.1 4.8 4.7c-.1 2.7-2.2 4.8-4.8 4.8z"/><path d="m1196.5 109.8-31.7-3.6-16.9-27.5c-5.2-8.4-14.4-13.6-24.3-13.6h-57.6c-16.6 0-31.1 11.1-35.5 27.1l-.4 1.6c-2.2 8-8.4 14.2-16.3 16.5-6.5 1.8-11 7.7-11 14.5v39.3c0 2 1.6 3.6 3.5 3.6h18.3c2.7 12.9 15.3 21.1 28.1 18.4 9.3-1.9 16.5-9.2 18.4-18.4h77.3c2.7 12.9 15.3 21.1 28.1 18.4 9.3-1.9 16.5-9.2 18.4-18.4h19.2c1.8 0 3.3-1.4 3.5-3.1l2.8-24.4c1.7-15.1-9-28.6-23.9-30.4zm-186.7 46.4h15.2c-.4 1.4-.7 2.9-.8 4.3h-14.3zm38 23.2c-9.2 0-16.7-7.5-16.7-16.7s7.5-16.7 16.7-16.7 16.7 7.5 16.7 16.7c0 9.3-7.4 16.7-16.7 16.7zm124 0c-9.2 0-16.7-7.5-16.7-16.7s7.5-16.7 16.7-16.7 16.7 7.5 16.7 16.7c0 9.3-7.5 16.7-16.7 16.7zm0-40.5c-7.8 0-15 3.8-19.5 10.1h-63.2c-2 0-3.6 1.6-3.6 3.6s1.6 3.6 3.6 3.6h59.8c-.4 1.4-.7 2.9-.8 4.3h-76.6c-1.2-13.1-12.8-22.7-25.9-21.5-7 .7-13.3 4.3-17.3 10h-18.5v-24.3c0-3.5 2.4-6.6 5.8-7.6 10.3-2.9 18.4-11.1 21.3-21.4l.4-1.6c3.6-12.9 15.3-21.8 28.7-21.9h57.5c7.5 0 14.4 3.9 18.3 10.2l17.8 29c.6.9 1.5 1.5 2.6 1.7l33.4 3.8c7.3.8 13.6 5.6 16.4 12.4h-11c-2 0-3.6 1.6-3.6 3.6s1.6 3.6 3.6 3.6h12.6c0 .9 0 1.9-.1 2.8l-1.1 9.8h-21.1c-4.5-6.3-11.8-10.1-19.5-10.2zm23.7 21.6c-.1-1.5-.4-2.9-.8-4.3h16.9l-.5 4.3z"/><path d="m1123.8 118.8h-7.5c-2 0-3.6 1.6-3.6 3.5 0 2 1.6 3.6 3.5 3.6h7.5c2 0 3.5-1.6 3.5-3.6.1-2-1.5-3.5-3.4-3.5z"/><path d="m1076.1 122.3c0-2-1.6-3.6-3.5-3.6h-7.5c-2 0-3.6 1.6-3.6 3.5 0 2 1.6 3.6 3.5 3.6h7.5c2 .1 3.6-1.5 3.6-3.5z"/><path d="m1080.5 151.3c-.8-1.8-2.8-2.7-4.6-1.9s-2.7 2.8-1.9 4.6 2.8 2.7 4.6 1.9c.2-.1.4-.2.6-.4 1.4-.9 1.9-2.7 1.3-4.2-.1-.2.1.2 0 0z"/><path d="m1138.2 84.7c-3.1-5.1-8.6-8.1-14.6-8.2h-57.6c-11.4 0-21.5 7.7-24.5 18.7l-.4 1.6c-1.2 4.2-3 11.5-3 11.8-.5 1.9.7 3.8 2.6 4.3.3.1.6.1.8.1h107.8c2 0 3.5-1.6 3.5-3.6 0-.6-.2-1.3-.5-1.8zm-41-1v22.3h-32.7v-22.2c.5 0 1.1-.1 1.6-.1zm-49.2 15.1.4-1.6c1.3-4.8 4.6-8.9 9-11.2v20h-11.4c.6-2.4 1.4-5.2 2-7.2zm56.3 7.2v-22.3h19.3c3.5 0 6.7 1.8 8.6 4.8l10.8 17.5z"/><path d="m997.5 125c-17.7 2.7-35.6 3.7-53.5 2.8-1.9-.1-1.9 2.9 0 3 18.2.8 36.3-.2 54.3-3 1.9-.2 1.1-3.1-.8-2.8z"/><path d="m986.6 139.6-55.2 5.3c-1.9.2-1.9 3.2 0 3l55.2-5.3c1.9-.1 1.9-3.1 0-3z"/><path d="m967 158-45.4 2.9c-1.9.1-1.9 3.1 0 3l45.4-2.9c1.9-.1 1.9-3.1 0-3z"/><path d="m252 60.2c-.1 4.6.4 9.3 1.3 13.8.2.8 1 1.3 1.8 1.1s1.3-1 1.1-1.8v-.1c-.9-4.3-1.3-8.6-1.2-13 0-1.9-3-1.9-3 0z"/><path d="m275 62.7-2.4 11.8c-.2.8.3 1.6 1 1.8.8.2 1.6-.2 1.8-1l2.4-11.8c.2-.8-.3-1.6-1-1.8-.7-.3-1.6.2-1.8 1z"/><path d="m289.8 81.2c4.4-3.4 8.3-7.3 11.7-11.8.4-.7.1-1.6-.5-2-.7-.4-1.6-.1-2 .5-3 4-6.6 7.6-10.6 10.7-.7.4-.9 1.3-.5 2.1.3.7 1.2.9 1.9.5z"/><path d="m238.5 72.8c-1.7-3.7-3.8-7.1-6.4-10.2-.6-.6-1.5-.6-2.1 0s-.6 1.5 0 2.1c2.4 2.9 4.4 6.1 5.9 9.6.4.7 1.3 1 2 .6.8-.4 1.1-1.3.6-2.1z"/><path d="m1576 151.4c-6.6 0-11.9 5.3-11.9 11.8 0 6.6 5.3 11.9 11.8 11.9 6.6 0 11.9-5.3 11.9-11.8 0-6.6-5.3-11.9-11.8-11.9zm0 16.6c-2.6 0-4.8-2.1-4.8-4.8s2.1-4.8 4.8-4.8 4.8 2.1 4.8 4.8-2.2 4.8-4.8 4.8z"/><path d="m1699.9 151.4c-6.6 0-11.9 5.3-11.9 11.8 0 6.6 5.3 11.9 11.8 11.9 6.6 0 11.9-5.3 11.9-11.8 0-6.6-5.3-11.9-11.8-11.9zm0 16.6c-2.6 0-4.8-2.1-4.8-4.8s2.1-4.8 4.8-4.8 4.8 2.1 4.8 4.8-2.2 4.8-4.8 4.8z"/><path d="m1724.6 110.3-31.7-3.6-16.9-27.5c-5.2-8.4-14.4-13.6-24.3-13.6h-57.5c-16.6 0-31.1 11.1-35.5 27.1l-.4 1.6c-2.2 8-8.4 14.2-16.4 16.5-6.5 1.8-10.9 7.7-10.9 14.5v39.3c0 2 1.6 3.6 3.6 3.6h18.2c2.7 12.9 15.3 21.1 28.2 18.4 9.3-1.9 16.5-9.2 18.4-18.4h77.3c2.7 12.9 15.3 21.1 28.1 18.4 9.3-1.9 16.5-9.2 18.4-18.4h19.2c1.8 0 3.3-1.3 3.5-3.1l2.8-24.4c1.6-15.1-9.1-28.6-24.1-30.4zm-186.6 46.4h15.1c-.4 1.4-.7 2.9-.8 4.3h-14.3zm38 23.2c-9.2 0-16.7-7.5-16.7-16.7s7.5-16.7 16.7-16.7 16.7 7.5 16.7 16.7c0 9.3-7.5 16.7-16.7 16.7zm123.9 0c-9.2 0-16.7-7.5-16.7-16.7s7.5-16.7 16.7-16.7 16.7 7.5 16.7 16.7c0 9.3-7.5 16.7-16.7 16.7zm0-40.5c-7.8 0-15 3.8-19.5 10.1h-63.2c-2 0-3.6 1.6-3.6 3.6s1.6 3.6 3.6 3.6h59.7c-.4 1.4-.7 2.9-.8 4.3h-76.6c-1.2-13.1-12.8-22.7-25.9-21.4-6.9.7-13.2 4.3-17.2 10h-18.4v-24.3c0-3.5 2.4-6.7 5.8-7.6 10.3-3 18.4-11.1 21.2-21.4l.4-1.6c3.6-12.9 15.3-21.8 28.7-21.9h57.5c7.5 0 14.4 3.9 18.3 10.3l17.8 29c.6.9 1.5 1.5 2.6 1.7l33.4 3.8c7.3.8 13.6 5.6 16.4 12.4h-11.1c-2 0-3.6 1.6-3.6 3.6s1.6 3.6 3.6 3.6h12.6c0 .9 0 1.9-.1 2.8l-1.1 9.8h-21.1c-4.3-6.5-11.6-10.3-19.4-10.4zm23.7 21.6c-.1-1.5-.4-2.9-.8-4.3h16.9l-.5 4.3z"/><path d="m1651.9 119.2h-7.5c-2 0-3.6 1.6-3.6 3.5 0 2 1.6 3.6 3.5 3.6h7.5c2 0 3.6-1.6 3.6-3.5 0-2-1.6-3.6-3.5-3.6z"/><path d="m1604.2 122.8c0-2-1.6-3.6-3.6-3.6h-7.5c-2 0-3.5 1.6-3.5 3.6s1.6 3.5 3.5 3.5h7.5c2 0 3.6-1.5 3.6-3.5z"/><path d="m1608.6 151.8c-.7-1.8-2.8-2.7-4.6-1.9-1.8.7-2.7 2.8-1.9 4.6.7 1.8 2.8 2.7 4.6 1.9.2-.1.4-.2.6-.3 1.4-1 1.9-2.8 1.3-4.3z"/><path d="m1666.3 85.2c-3.1-5.1-8.7-8.1-14.6-8.2h-57.5c-11.4 0-21.5 7.7-24.5 18.7l-.4 1.6c-1.2 4.2-3 11.5-3 11.8-.5 1.9.7 3.8 2.6 4.3.3.1.6.1.8.1h107.8c2 0 3.5-1.6 3.5-3.6 0-.6-.2-1.3-.5-1.8zm-41-1v22.3h-32.7v-22.3c.5 0 1.1-.1 1.6-.1zm-49.2 15.1.4-1.6c1.3-4.8 4.6-8.9 9-11.2v20.1h-11.3c.6-2.5 1.3-5.3 1.9-7.3zm56.3 7.2v-22.3h19.3c3.5 0 6.7 1.8 8.6 4.8l10.7 17.6z"/><path d="m183.4 44.7c10.6-.2 19.8-8.7 20.9-19.2 0-.8-.7-1.5-1.5-1.5-4.3.3-8 2.8-10 6.6-1 1.8-1.5 3.9-1.4 6 .1 2 1 4.1.9 6.1-.2 2.5-3.2 1.9-5 1.7-2.7-.4-5.4-.9-8.1-1.5-5.3-1.2-10.4-3-15.3-5.5-2.7-1.4-8.9-6.3-5.5-9.8h-2.2c10.4 8.7 19.6 18.6 27.5 29.5.4.7 1.4.9 2.1.5.1-.1.2-.1.3-.2 10.2-10.2 15.1-24.5 13.2-38.8 0-.8-.7-1.5-1.5-1.5-.1 0-.2 0-.4 0-13.7 4.2-25.6 12.7-33.9 24.3l2.8.8-.1-21.2-2.2 1.2c7.9 4 14.8 9.8 20.2 16.8 1 1.3 2.7-.2 2.5-1.5-.8-5.2-1.9-10.4-3.4-15.5-.2-.8-1.1-1.3-1.8-1-.1 0-.2.1-.4.1-9.8 6.8-18.4 15.1-25.5 24.6-.7 1 .3 2.2 1.3 2.3 10.8.3 18.8-13.1 13.4-22.5-.4-.7-1.4-.9-2.1-.5-.3.2-.6.5-.7.9-2.4 11.7 1.8 23.8 11 31.5.6.6 1.6.5 2.1-.1.3-.3.4-.6.4-1 .2-6.5 2.7-12.7 7.2-17.4 1.3-1.4-.8-3.5-2.1-2.1-5 5.3-7.8 12.2-8 19.5l2.6-1.1c-8.5-6.9-12.4-17.9-10.3-28.6l-2.7.3c4.3 7.4-2.3 18.2-10.8 18l1.3 2.2c6.8-9.1 15.1-17.1 24.4-23.6l-2.2-.9c1.4 5.1 2.6 10.3 3.4 15.5l2.5-1.5c-5.6-7.2-12.7-13-20.8-17.2-.7-.4-1.7-.1-2.1.6-.1.2-.2.5-.2.7l.1 21.2c0 .8.7 1.5 1.5 1.5.5 0 1-.3 1.2-.7 7.9-10.9 19.2-19 32.1-23l-1.9-1.5c1.8 13.5-2.8 27.1-12.4 36.7l2.4.3c-8-11.2-17.4-21.3-28-30.1-.6-.6-1.5-.6-2.1 0-3.4 3.6-1.2 8.3 1.9 11.3 3.8 3.7 9.3 5.5 14.2 7.2 2.9 1 5.9 1.8 8.9 2.4 2.8.7 5.8 1.1 8.7 1.3 2.4 0 4.6-1.1 5.3-3.5.6-2.2-.1-4.5-.5-6.6-.8-5 2.7-9.7 7.7-10.4.2 0 .4 0 .5-.1l-1.5-1.5c-1 8.8-9.2 16-17.9 16.2-1.9.3-1.9 3.3 0 3.3z"/></g></svg>