<svg enable-background="new 0 0 1870 188" viewBox="0 0 1870 188" xmlns="http://www.w3.org/2000/svg"><g fill="#fff"><path d="m925 177c-43.4 0-78.5-35.1-78.5-78.5s35.1-78.5 78.5-78.5 78.5 35.1 78.5 78.5c0 43.3-35.2 78.5-78.5 78.5zm3.4-7 1.2-.2c12.2-1.9 23.1-11.4 30.8-26.7l.7-1.4h-32.7zm-38.7-26.9c7.7 15.3 18.6 24.7 30.8 26.7l1.2.2v-28.3h-32.7zm78.4-.8c-2.9 6.6-6.8 12.8-11.4 18.3l1.3 1.5c8.9-4.6 16.7-11 23-18.8l1.3-1.6h-13.8zm-99 1c6.2 7.8 14.1 14.2 23 18.8l1.2-1.5c-4.7-5.5-8.5-11.7-11.4-18.3l-.3-.6h-13.8zm107.8-40.4c-.3 10.4-2.1 20.7-5.4 30.6l-.4 1.3h15.7l.3-.5c5.5-9.6 8.8-20.3 9.4-31.3l.1-1.1h-19.6zm-48.4 32h35.5l.2-.7c3.5-10 5.5-20.6 5.8-31.2v-1h-41.6zm-48.5-31.9c.3 10.6 2.3 21.2 5.9 31.2l.2.7h35.5v-32.9h-41.7zm-26.4 0c.6 11 3.9 21.8 9.4 31.3l.3.5h15.7l-.4-1.3c-3.2-9.9-5-20.2-5.4-30.6v-1h-19.7zm117.9-39.5c3.2 9.9 5 20.2 5.4 30.6v1h19.6v-1.1c-.7-11-3.9-21.8-9.4-31.3l-.3-.5h-15.8zm-43.1 31.6h41.6v-1c-.3-10.6-2.3-21.2-5.9-31.2l-.2-.7h-35.6zm-42.6-32.3c-3.5 10-5.5 20.5-5.8 31.2v1h41.6v-32.8h-35.5zm-22.8-.1c-5.6 9.6-8.8 20.3-9.4 31.3l-.1 1.1h19.6v-1c.3-10.4 2.1-20.7 5.4-30.6l.4-1.3h-15.6zm93.7-26.3c4.7 5.5 8.5 11.7 11.4 18.3l.3.6h13.8l-1.3-1.6c-6.2-7.8-14-14.2-22.9-18.8zm-28.3 18.9h32.7l-.7-1.5c-7.7-15.3-18.6-24.7-30.8-26.7l-1.2-.2zm-8-28.1c-12.2 1.9-23.1 11.4-30.8 26.7l-.7 1.5h32.7v-28.4zm-28.4 7.7c-8.9 4.6-16.7 11-22.9 18.8l-1.3 1.6h13.8l.3-.6c2.9-6.6 6.7-12.8 11.4-18.3z"/><path d="m1235.9 53.7c-.4-.6-1.2-.8-1.9-.7-.2 0-.3 0-.5.1l-118.5 32.2c-1.1.2-1.8 1.2-1.6 2.3.1.8.7 1.4 1.5 1.6l43.4 14.2-3.9 31c-.2 1.1.6 2.1 1.7 2.3h.3c.4 0 .9-.1 1.2-.4l15.9-12.2 13.9 19.9c.4.6 1 .9 1.7.9h.1c.7-.1 1.4-.5 1.7-1.1l45.1-87.8c.5-.7.4-1.6-.1-2.3zm-14.2 6.9-61.4 39.2-37.6-12.3zm-62.6 69.6 2.8-22.6 9.3 13.3zm29.8 8.8-25.5-36.4 65.6-41.9z"/><path d="m684.2 144.3c-8.8-6.5-17.1-13.7-24.8-21.6-15.2-15.6-23.4-29.9-23.5-41.4-.1-8 3.4-14.8 10.5-20.2 4.5-3.6 10.1-5.5 15.9-5.6 7.2 0 15.1 3.1 22.8 9l.6.5.6-.5c7.7-5.9 15.6-9 22.8-9 5.8 0 11.4 2 15.9 5.6 7.1 5.4 10.6 12.2 10.5 20.2-.2 11.5-8.3 25.8-23.5 41.4-7.7 7.8-16 15-24.8 21.6l-1.5 1.1zm-22-83.7c-4.7 0-9.2 1.6-12.8 4.6-5.8 4.4-8.6 9.7-8.5 16.2.1 10.4 8.1 23.8 23 38.8 6.7 6.6 13.7 12.8 21.2 18.5l.6.5.6-.5c7.5-5.7 14.6-11.9 21.2-18.5 14.9-15 22.9-28.4 23-38.8.1-6.4-2.7-11.7-8.5-16.2-3.6-2.9-8.2-4.5-12.8-4.5-8.5 0-16.6 5.2-21.8 9.6l-1.6 1.3-1.6-1.3c-5.4-4.5-13.5-9.7-22-9.7z"/><path d="m400.8 80.4c33.9-31.4 86.2-31.4 120 0l-4.2 4.2c-31.6-29.1-80.2-29.1-111.7 0z"/><path d="m417.9 97.5c24.4-21.9 61.4-21.9 85.8 0l-4.2 4.2c-22.1-19.6-55.4-19.6-77.4 0z"/><path d="m435.1 114.7c14.9-12.5 36.6-12.5 51.5 0l-4.2 4.2c-12.6-10.2-30.5-10.2-43.1 0z"/><path d="m452.5 132.1c5.1-3.2 11.5-3.2 16.5 0l-8.3 8.2z"/></g><path d="m1436.3 122.8c-3.4-6.5-15.3-13.5-15.8-13.8-1.4-.8-3-1.3-4.6-1.3-2.1-.1-4.1 1-5.1 2.9-1.4 1.7-2.8 3.4-4.4 4.9-4 2.8-7.2 2.4-10.7-1.1l-19.7-19.7c-3.5-3.5-3.8-6.7-1.1-10.7 1.5-1.6 3.2-3.1 4.9-4.4 1.3-.7 2.2-2 2.6-3.4.5-2.2.1-4.5-1.1-6.4-.3-.5-7.3-12.4-13.8-15.8-3.3-1.7-7.3-1.1-9.9 1.5l-4.3 4.3c-6.8 6.8-9.3 14.6-7.4 23.1 1.6 7.1 6.4 14.6 14.1 22.3l25.1 25.1c9.8 9.8 19.1 14.8 27.8 14.8 6.3 0 12.3-2.7 17.6-8l4.3-4.3c2.7-2.7 3.3-6.8 1.5-10z" fill="none" stroke="#fff" stroke-miterlimit="10" stroke-width="4"/><path d="m1553 144.5c-3.4 0-6.1-2.7-6.1-6.1v-4.5c0-.9.7-1.6 1.6-1.6h2.9v-70.4c0-4.6 3.7-8.4 8.4-8.4h103.5c4.6 0 8.4 3.7 8.4 8.4v70.4h2.9c.9 0 1.6.7 1.6 1.6v4.5c0 3.4-2.7 6.1-6.1 6.1zm-2.9-6.1c0 1.6 1.3 2.9 2.9 2.9h117c1.6 0 2.9-1.3 2.9-2.9v-2.9h-48.6v.6c0 .9-.7 1.6-1.6 1.6h-22.5c-.9 0-1.6-.7-1.6-1.6l.1-.6h-48.7zm9.7-81.7c-2.8 0-5.1 2.3-5.1 5.1v70.4h113.8v-70.3c0-2.8-2.3-5.1-5.2-5.1z" fill="#fff"/><path d="m1562 126.5c-.9 0-1.6-.7-1.6-1.6v-60.8c0-.9.7-1.6 1.6-1.6h99c.9 0 1.6.7 1.6 1.6v60.8c0 .9-.7 1.6-1.6 1.6zm1.6-3.2h95.8v-57.6h-95.8z" fill="#fff"/><path d="m236.2 53.7h46c1.4 0 2.6 1.2 2.6 2.6v82.8c0 1.4-1.2 2.6-2.6 2.6h-46c-1.4 0-2.6-1.2-2.6-2.6v-82.8c0-1.5 1.2-2.6 2.6-2.6z" fill="none" stroke="#fff" stroke-linecap="square" stroke-width="3.5"/><path d="m252 55.7h14.4v.6h-14.4z" fill="#fff" stroke="#fff" stroke-linecap="square" stroke-width="3.5"/><path d="m120.4 144.6c-.7 0-1.3-.4-1.6-1.1l-3.4-9.1-1 .2v8.4c0 .9-.8 1.7-1.7 1.7s-1.7-.8-1.7-1.7v-8.3l-1-.2-3.4 9.1c-.3.9-1.3 1.3-2.2 1s-1.3-1.3-1-2.2l7.5-20.2v-27.9l-22.5 17.2v7.7c0 5.5-8.8 11.4-25.2 11.4s-25.2-5.9-25.2-11.4v-7.7l-25.1-19.3c-.4-.3-.7-.8-.7-1.4 0-.5.3-1 .7-1.3l49.4-35.5c.3-.2.6-.3 1-.3s.7.1 1 .3l49.5 35.6c.4.3.7.8.7 1.3v31.3l7.5 20.2c.3.9-.1 1.8-1 2.2-.2 0-.4 0-.6 0zm-57.1-39.1c-10.2 0-19.4 4.1-21.8 9.8v.1 3.8c0 3.8 8.9 8 21.8 8 12.5 0 21.8-4.2 21.8-8v-3.8-.1c-2.4-5.7-11.6-9.8-21.8-9.8zm0-14.9c-11.8 0-21.8 5.9-21.8 12.8v6.2l.8-.7c4.9-4.2 12.7-6.8 21-6.8s16.1 2.5 21 6.8l.8.7v-6.2c0-7-9.9-12.8-21.8-12.8zm0-3.4c6.1-.1 12.2 1.4 17.5 4.5 4.9 3.1 7.7 7.2 7.7 11.7v3.8l21.4-16.3-46.6-33.5-46.6 33.5 21.4 16.3v-3.8c0-4.5 2.7-8.6 7.7-11.7 5.4-3.1 11.4-4.6 17.5-4.5z" fill="#fff"/><path d="m1797.5 142.1c-5.4 0-9.8-4.3-9.9-9.7v-65.7c.1-7 5.8-12.6 12.8-12.6h60c1 0 1.8.8 1.8 1.8 0 22.4-.1 64.7-.1 68.3v.1.4c-.1.9-.6 1.7-1.3 2.2-1.8 1.4-2.9 3.6-2.8 5.9.1 2.6 1.4 4.9 3.6 6.3.5.5.7 1.2.4 1.9s-1 1.2-1.8 1.2zm0-15.7c-3.4-.1-6.1 2.6-6.2 6 0 3.3 2.8 6 6.1 6h.1 59l-2.2-3.1c-1.1-1.8-1-4.1.1-5.9l1.8-3zm2.9-68.6c-5 0-9 3.9-9.1 8.9v57.8l2.7-1c1.1-.4 2.3-.7 3.5-.7h61v-65z" fill="#fff"/></svg>